<svg xmlns="http://www.w3.org/2000/svg" viewBox="0 -6 174 64" fill="none" role="img" aria-labelledby="title">
  <title id="title">isplay</title>
  <g fill="#ffffff">
    <path d="M40.1123 38.998C40.089 38.9593 31.5176 24.7498 21.0029 24.3047L20.5 24.2939C9.77031 24.2943 0.933033 38.9229 0.887695 38.998V7C0.935283 7.07889 9.77169 21.7038 20.5 21.7041L21.0029 21.6934C31.5037 21.2489 40.0665 7.07601 40.1123 7V38.998Z"/>
    <g transform="translate(48 33.86) scale(0.053333 -0.053333)">
      <path d="M60 0H136V520H60ZM60 619H135V720H60Z"/>
    </g>
    <g transform="translate(55.84 35.01) scale(0.053333 -0.053333)">
      <path d="M246 -12C362 -12 452 42 452 143C452 227 411 271 259 297C145 317 117 335 117 387C117 439 168 467 232 467C309 467 363 440 367 360H442C440 469 363 532 232 532C121 532 42 475 42 386C42 304 82 254 239 228C358 209 376 187 376 138C376 83 325 54 246 54C158 54 109 87 102 170H26C32 47 120 -12 246 -12Z"/>
    </g>
    <g transform="translate(78.72 38.66) scale(0.053333 -0.053333)">
      <path d="M62 520V-200H137V81C174 23 233 -12 313 -12C468 -12 553 105 553 260C553 415 468 532 313 532C231 532 171 495 134 434V520ZM305 464C418 464 474 377 474 260C474 143 418 56 305 56C191 56 135 143 135 260C135 377 191 464 305 464Z"/>
    </g>
    <g transform="translate(107.68 39.23) scale(0.053333 -0.053333)">
      <path d="M62 720V119C62 41 90 0 181 0H263V66H194C152 66 137 86 137 127V720Z"/>
    </g>
    <g transform="translate(120.53 39.81) scale(0.053333 -0.053333)">
      <path d="M389 0H459V382C459 474 397 532 265 532C155 532 53 484 50 360H125C129 443 199 465 265 465C342 465 386 441 386 375V334L219 301C100 278 31 231 31 140C31 44 100 -12 216 -12C281 -12 344 10 389 73ZM219 55C142 55 109 91 109 142C109 203 155 221 229 237L386 270V210C386 102 302 55 219 55Z"/>
    </g>
    <g transform="translate(144.91 40.38) scale(0.053333 -0.053333)">
      <path d="M28 -200H132C208 -200 230 -151 254 -88L487 520H405L248 91L92 520H10L209 1L183 -69C166 -114 154 -134 105 -134H28Z"/>
    </g>
  </g>
</svg>
