<svg width="184" height="58" viewBox="0 0 184 58" fill="none" xmlns="http://www.w3.org/2000/svg">
<g clip-path="url(#clip0_5965_6553)">
<path d="M147.5 27.7888V25.8242H145.076V22.77L144.994 22.7952L142.717 23.4963L142.672 23.5101V25.8242H139.079V24.5352C139.079 23.9349 139.212 23.4755 139.475 23.1691C139.736 22.8664 140.109 22.7126 140.585 22.7126C140.928 22.7126 141.282 22.7937 141.639 22.9538L141.728 22.9939V20.9249L141.686 20.9094C141.354 20.789 140.901 20.7284 140.34 20.7284C139.633 20.7284 138.99 20.8832 138.43 21.1901C137.869 21.4974 137.428 21.9361 137.12 22.494C136.812 23.0512 136.655 23.6947 136.655 24.4068V25.8242H134.968V27.7888H136.655V36.0652H139.079V27.7888H142.672V33.0483C142.672 35.2144 143.688 36.3122 145.69 36.3122C146.019 36.3122 146.365 36.2733 146.719 36.1973C147.079 36.1193 147.324 36.0414 147.468 35.9582L147.5 35.9393V33.9565L147.401 34.0221C147.27 34.1104 147.106 34.1824 146.914 34.2359C146.721 34.2905 146.56 34.3179 146.435 34.3179C145.966 34.3179 145.619 34.1907 145.404 33.9397C145.186 33.6864 145.076 33.2434 145.076 32.6238V27.7888H147.5ZM129.556 34.3181C128.677 34.3181 127.983 34.0246 127.494 33.4465C127.003 32.8653 126.754 32.0369 126.754 30.9844C126.754 29.8985 127.003 29.0486 127.495 28.4572C127.984 27.8698 128.67 27.5716 129.536 27.5716C130.377 27.5716 131.045 27.8564 131.524 28.4184C132.006 28.9833 132.25 29.8265 132.25 30.9251C132.25 32.0372 132.02 32.8914 131.567 33.4628C131.117 34.03 130.441 34.3181 129.556 34.3181ZM129.664 25.5775C127.986 25.5775 126.653 26.0723 125.703 27.0482C124.753 28.0243 124.272 29.3749 124.272 31.0631C124.272 32.6665 124.742 33.9562 125.669 34.8958C126.596 35.8359 127.858 36.312 129.419 36.312C131.045 36.312 132.351 35.8103 133.301 34.8209C134.251 33.8324 134.732 32.4946 134.732 30.8458C134.732 29.2173 134.281 27.918 133.39 26.9846C132.498 26.0508 131.245 25.5775 129.664 25.5775ZM120.365 25.5774C119.223 25.5774 118.279 25.8712 117.558 26.4506C116.832 27.0333 116.464 27.7977 116.464 28.7226C116.464 29.2033 116.544 29.6304 116.7 29.9926C116.858 30.3561 117.101 30.6759 117.424 30.9445C117.745 31.2109 118.241 31.4899 118.897 31.7737C119.449 32.0023 119.861 32.1957 120.122 32.3481C120.378 32.4973 120.559 32.6475 120.662 32.7937C120.761 32.9368 120.812 33.1325 120.812 33.3743C120.812 34.0622 120.3 34.3969 119.246 34.3969C118.856 34.3969 118.41 34.315 117.921 34.153C117.433 33.9913 116.976 33.7588 116.565 33.4607L116.464 33.3882V35.736L116.501 35.7533C116.844 35.9125 117.276 36.0468 117.786 36.1526C118.294 36.2583 118.756 36.3122 119.158 36.3122C120.397 36.3122 121.394 36.0169 122.122 35.4342C122.854 34.8474 123.225 34.0651 123.225 33.108C123.225 32.4178 123.026 31.8257 122.632 31.3484C122.24 30.8748 121.562 30.4401 120.614 30.0558C119.86 29.7511 119.377 29.4981 119.177 29.304C118.985 29.1163 118.888 28.851 118.888 28.5151C118.888 28.2173 119.008 27.9787 119.255 27.7854C119.505 27.5912 119.851 27.4924 120.287 27.4924C120.69 27.4924 121.103 27.5566 121.514 27.6823C121.925 27.8081 122.285 27.9765 122.586 28.1827L122.685 28.2508V26.0236L122.647 26.0071C122.37 25.8873 122.003 25.7848 121.559 25.7016C121.116 25.6192 120.714 25.5774 120.365 25.5774ZM110.147 34.3181C109.268 34.3181 108.574 34.0246 108.086 33.4465C107.594 32.8653 107.345 32.0372 107.345 30.9844C107.345 29.8985 107.594 29.0486 108.086 28.4572C108.575 27.8698 109.261 27.5716 110.128 27.5716C110.968 27.5716 111.636 27.8564 112.116 28.4184C112.597 28.9833 112.842 29.8265 112.842 30.9251C112.842 32.0372 112.612 32.8914 112.158 33.4628C111.709 34.03 111.032 34.3181 110.147 34.3181ZM110.255 25.5775C108.577 25.5775 107.244 26.0723 106.294 27.0482C105.345 28.0243 104.863 29.3749 104.863 31.0631C104.863 32.6672 105.333 33.9562 106.26 34.8958C107.187 35.8359 108.449 36.312 110.01 36.312C111.636 36.312 112.943 35.8103 113.893 34.8209C114.842 33.8324 115.324 32.4946 115.324 30.8458C115.324 29.2173 114.872 27.918 113.981 26.9846C113.089 26.0508 111.836 25.5775 110.255 25.5775ZM101.185 27.5977V25.8242H98.7908V36.0649H101.185V30.8264C101.185 29.9356 101.385 29.2039 101.781 28.6511C102.172 28.105 102.693 27.8282 103.329 27.8282C103.545 27.8282 103.787 27.864 104.049 27.9348C104.308 28.0052 104.496 28.0815 104.607 28.1619L104.708 28.2352V25.8067L104.669 25.7899C104.446 25.6945 104.131 25.6465 103.732 25.6465C103.13 25.6465 102.592 25.841 102.131 26.2239C101.726 26.5605 101.434 27.0221 101.21 27.5977H101.185ZM94.5043 25.5774C93.4062 25.5774 92.4267 25.8145 91.5935 26.2816C90.7586 26.7498 90.113 27.4183 89.6737 28.2683C89.2364 29.1163 89.0144 30.1069 89.0144 31.2114C89.0144 32.179 89.2297 33.067 89.6552 33.8495C90.0809 34.6333 90.6836 35.2466 91.4463 35.6719C92.2081 36.0968 93.0884 36.3122 94.0631 36.3122C95.2006 36.3122 96.1719 36.0833 96.9506 35.632L96.982 35.6137V33.4068L96.8815 33.4807C96.5287 33.7393 96.1345 33.9456 95.7104 34.0944C95.2873 34.243 94.9016 34.3181 94.5635 34.3181C93.6242 34.3181 92.8703 34.0222 92.3229 33.4392C91.7744 32.8553 91.4963 32.0355 91.4963 31.0038C91.4963 29.9656 91.7863 29.1247 92.358 28.5042C92.9277 27.8855 93.6831 27.5717 94.6029 27.5717C95.3897 27.5717 96.1564 27.8399 96.8817 28.3694L96.982 28.4427V26.1173L96.9497 26.099C96.6767 25.9452 96.3045 25.8183 95.8422 25.722C95.3821 25.6259 94.9321 25.5774 94.5043 25.5774ZM87.3658 25.8242H84.9721V36.0649H87.3658V25.8242ZM86.1934 21.4616C85.7995 21.4616 85.4559 21.5966 85.1736 21.864C84.8901 22.1323 84.7462 22.47 84.7462 22.8685C84.7462 23.2607 84.8884 23.5922 85.169 23.8533C85.4479 24.1136 85.7926 24.2456 86.1934 24.2456C86.5941 24.2456 86.9401 24.1136 87.2223 23.8537C87.5065 23.5922 87.6505 23.2607 87.6505 22.8685C87.6505 22.4839 87.5104 22.1496 87.234 21.8748C86.9581 21.6006 86.6079 21.4616 86.1934 21.4616ZM80.2211 25.0687V36.0649H82.664V21.7752H79.2831L74.9856 32.3891L70.8152 21.7752H67.2966V36.0649H69.5922V25.0676H69.6711L74.0749 36.0649H75.8073L80.1424 25.0687H80.2211Z" fill="white"/>
<path d="M47.7603 28.3322H36.5V17H47.7603V28.3322Z" fill="#F1511B"/>
<path d="M60.193 28.3322H48.9329V17H60.193V28.3322Z" fill="#80CC28"/>
<path d="M47.76 40.8488H36.5V29.5166H47.76V40.8488Z" fill="#00ADEF"/>
<path d="M60.193 40.8488H48.9329V29.5166H60.193V40.8488Z" fill="#FBBC09"/>
</g>
<defs>
<clipPath id="clip0_5965_6553">
<rect width="111" height="24" fill="white" transform="translate(36.5 17)"/>
</clipPath>
</defs>
</svg>
