<svg width="184" height="58" viewBox="0 0 184 58" fill="none" xmlns="http://www.w3.org/2000/svg">
<g clip-path="url(#clip0_5965_6997)">
<path d="M58.7203 33.7021C59.0742 33.8445 59.5987 33.9362 60.2939 33.9785V34.276H52.4486V33.9785C53.1424 33.9362 53.6683 33.8445 54.0222 33.7021C54.3761 33.5611 54.6214 33.3341 54.7554 33.021C54.8893 32.7094 54.957 32.2483 54.957 31.6391V22.1545H54.8936L49.5144 34.5524H49.451L43.6883 22.1982H43.6249V31.6391C43.6249 32.2483 43.6954 32.7094 43.8378 33.021C43.9788 33.3327 44.2241 33.5597 44.571 33.7021C44.9178 33.8445 45.4395 33.9362 46.1333 33.9785V34.276H40.1478V33.9785C40.8415 33.9362 41.3632 33.8445 41.7101 33.7021C42.0569 33.5611 42.3023 33.3341 42.4433 33.021C42.5843 32.7094 42.6562 32.2483 42.6562 31.6391V22.1333C42.6562 21.5241 42.5857 21.063 42.4433 20.7514C42.3009 20.4398 42.0569 20.2127 41.7101 20.0703C41.3618 19.9293 40.8415 19.8362 40.1478 19.7939V19.4964H45.5171L50.4211 30.2036L55.177 19.4964H60.2939V19.7939C59.5987 19.8362 59.0742 19.9293 58.7203 20.0703C58.3664 20.2127 58.1182 20.4426 57.9758 20.7613C57.8334 21.08 57.7629 21.5368 57.7629 22.1333V31.6391C57.7629 32.2483 57.8334 32.7094 57.9758 33.021C58.1182 33.3341 58.3664 33.5597 58.7203 33.7021ZM69.3799 26.5358C69.8184 27.3438 70.0384 28.2576 70.0384 29.2785C70.0384 30.2994 69.8184 31.2132 69.3799 32.0212C68.94 32.8292 68.3281 33.4539 67.5413 33.8925C66.7545 34.3324 65.8577 34.5524 64.851 34.5524C63.8443 34.5524 62.9517 34.3324 62.172 33.8925C61.3923 33.4539 60.7789 32.8292 60.3334 32.0212C59.8864 31.2132 59.6636 30.2994 59.6636 29.2785C59.6636 28.2576 59.8864 27.3438 60.3334 26.5358C60.7803 25.7278 61.3923 25.1045 62.172 24.6645C62.9517 24.2246 63.8443 24.0046 64.851 24.0046C65.8577 24.0046 66.7545 24.2246 67.5413 24.6645C68.3281 25.1045 68.94 25.7278 69.3799 26.5358ZM67.2536 29.2785C67.2536 28.2717 67.1578 27.4072 66.966 26.6838C66.7742 25.9604 66.4979 25.4119 66.1369 25.0354C65.776 24.6603 65.3459 24.4713 64.851 24.4713C64.3547 24.4713 63.926 24.6589 63.5651 25.0354C63.2041 25.4119 62.9278 25.9604 62.736 26.6838C62.5442 27.4072 62.4484 28.2717 62.4484 29.2785C62.4484 30.2853 62.5442 31.1498 62.736 31.8732C62.9278 32.5966 63.2041 33.1451 63.5651 33.5216C63.926 33.8981 64.3547 34.0857 64.851 34.0857C65.3473 34.0857 65.776 33.8981 66.1369 33.5216C66.4979 33.1465 66.7742 32.5966 66.966 31.8732C67.1578 31.1498 67.2536 30.2853 67.2536 29.2785ZM77.2477 26.2805C77.6157 26.2805 77.9499 26.344 78.2474 26.4723V24.1329C78.0627 24.0483 77.8442 24.006 77.5889 24.006C76.9361 24.006 76.3594 24.2937 75.856 24.8676C75.3527 25.4415 74.9607 26.1015 74.5969 27.4157H74.549V24.0906H74.4644L70.2541 25.3033V25.5797C70.7363 25.5797 71.1086 25.6262 71.3708 25.7179C71.6331 25.8096 71.8206 25.959 71.9348 26.1649C72.0476 26.3708 72.1055 26.65 72.1055 27.0054V32.2793C72.1055 32.7192 72.0631 33.045 71.9785 33.2579C71.8939 33.4708 71.7374 33.6302 71.5104 33.736C71.2834 33.8417 70.9225 33.9235 70.4261 33.9799V34.2774H76.3369V33.9799C75.8405 33.9376 75.4683 33.8629 75.2201 33.7571C74.972 33.6513 74.7986 33.4878 74.6999 33.2678C74.6012 33.0478 74.5504 32.7178 74.5504 32.2793V28.0996C74.996 27.0519 75.9773 26.2805 77.2477 26.2805ZM108.275 33.2452C108.19 33.0252 108.148 32.6967 108.148 32.2567V27.4072C108.148 25.1299 106.887 24.0046 105.235 24.0046C103.582 24.0046 102.521 25.175 102.067 25.7983H102.024V24.0906H101.94L97.7294 25.3033V25.5797C98.1975 25.5797 98.5655 25.6262 98.8348 25.7179C99.1041 25.8096 99.2959 25.9548 99.4087 26.1536C99.5215 26.3525 99.5793 26.6289 99.5793 26.9828V32.2553C99.5793 32.6953 99.537 33.0252 99.4524 33.2438C99.3678 33.4638 99.2113 33.626 98.9843 33.7331C98.7573 33.8389 98.3963 33.9207 97.9 33.9771V34.2746H103.429V33.9771C103.046 33.9207 102.752 33.8389 102.546 33.7331C102.34 33.6274 102.202 33.4638 102.131 33.2438C102.061 33.0238 102.026 32.6953 102.026 32.2553V26.571C102.515 25.9774 103.09 25.4077 104.025 25.4077C105.31 25.4077 105.704 26.3764 105.704 27.4707V32.2553C105.704 32.6953 105.665 33.0252 105.587 33.2438C105.51 33.4638 105.374 33.626 105.183 33.7331C104.991 33.8389 104.698 33.9207 104.3 33.9771V34.2746H109.765V33.9771C109.297 33.9207 108.953 33.8389 108.734 33.7331C108.512 33.6274 108.361 33.4652 108.275 33.2452ZM162 31.3415C161.53 32.3667 160.221 34.5524 157.556 34.5524C155.025 34.5524 152.921 32.4823 152.921 29.3645C152.921 28.3859 153.134 27.4862 153.558 26.6641C153.984 25.842 154.561 25.1933 155.291 24.7181C156.022 24.2429 156.825 24.006 157.705 24.006C160.259 24.006 161.532 25.8053 161.532 27.6808V28.1039H155.197C155.197 28.1419 155.195 28.1786 155.195 28.2167C155.195 30.4729 156.199 32.6403 158.725 32.6403C160.645 32.6403 161.449 31.577 161.765 31.1949L162 31.3415ZM155.24 27.3861H159.214C159.187 25.8448 158.727 24.4995 157.471 24.4939C156.292 24.4897 155.438 25.5896 155.24 27.3861ZM133.799 33.2452C133.714 33.0252 133.672 32.6967 133.672 32.2567V27.4072C133.672 26.6697 133.548 26.0465 133.299 25.536C133.051 25.0255 132.707 24.6434 132.269 24.3881C131.829 24.1329 131.325 24.006 130.759 24.006C130.106 24.006 129.529 24.1724 129.026 24.5052C128.522 24.838 128.044 25.3174 127.59 25.9407H127.548V19H127.463L123.253 20.2127V20.4891C123.721 20.4891 124.089 20.5356 124.359 20.6273C124.628 20.719 124.82 20.8642 124.933 21.063C125.045 21.2619 125.103 21.5383 125.103 21.8922V32.2553C125.103 32.6953 125.061 33.0252 124.976 33.2438C124.892 33.4638 124.735 33.626 124.508 33.7331C124.281 33.8389 123.92 33.9207 123.424 33.9771V34.2746H128.952V33.9771C128.57 33.9207 128.276 33.8389 128.07 33.7331C127.864 33.6274 127.726 33.4638 127.655 33.2438C127.585 33.0238 127.549 32.6953 127.549 32.2553V26.571C128.039 25.9774 128.614 25.4077 129.549 25.4077C130.073 25.4077 130.484 25.5811 130.783 25.928C131.08 26.2749 131.23 26.7896 131.23 27.4693V32.2553C131.23 32.6953 131.19 33.0252 131.113 33.2438C131.035 33.4638 130.9 33.626 130.708 33.7331C130.516 33.8389 130.223 33.9207 129.825 33.9771V34.2746H135.29V33.9771C134.822 33.9207 134.478 33.8389 134.26 33.7331C134.035 33.6274 133.885 33.4652 133.799 33.2452ZM118.355 33.358C115.219 33.3792 112.732 30.8579 112.732 26.767C112.732 22.4436 115.048 19.9222 117.698 19.9222C120.347 19.9222 121.484 22.3096 122.063 24.6547L122.488 24.6476V20.3326C121.492 19.7812 119.859 19.1593 117.486 19.1593C112.909 19.1593 109.455 22.5084 109.455 26.98C109.455 31.24 112.337 34.6088 117.296 34.5877C120.03 34.5665 121.936 32.935 122.847 31.6842L122.551 31.3669C121.936 32.0663 120.707 33.3369 118.355 33.358ZM149.923 28.3647L148.457 27.6625C147.483 27.2268 146.926 26.65 146.926 25.9407C146.926 25.1369 147.662 24.587 148.691 24.587C150.19 24.587 150.967 25.4161 151.288 27.2592H151.731V24.5799C151.291 24.4093 150.129 24.006 148.946 24.006C146.607 24.006 145.183 25.4768 145.183 27.1746C145.183 27.8275 145.356 28.3972 145.703 28.8865C146.05 29.3758 146.572 29.7974 147.266 30.1514L148.797 30.9171C149.844 31.3951 150.265 31.8661 150.265 32.5754C150.265 33.3594 149.633 33.9729 148.436 33.9729C146.686 33.9729 145.854 32.3131 145.626 30.9805H145.183V33.7233C145.85 34.1548 147.105 34.5524 148.267 34.5524C150.508 34.5524 152.072 33.1789 152.072 31.2358C152.071 29.8355 151.323 28.9598 149.923 28.3647ZM33.6942 27.8331V31.6391C33.6942 32.2342 33.7788 32.691 33.9494 33.0111C34.12 33.3298 34.4035 33.5611 34.7997 33.7021C35.1959 33.8445 35.7994 33.9362 36.6073 33.9785V34.276H28.3785V33.9785C29.0723 33.9362 29.594 33.8445 29.9408 33.7021C30.2877 33.5611 30.533 33.3341 30.674 33.021C30.815 32.7094 30.8869 32.2483 30.8869 31.6391V22.1982C30.8869 20.2536 30.0085 19.8588 28.6746 19.8588C27.2111 19.8588 26.3157 20.2522 26.3157 22.1347V32.6981C26.3157 35.0855 24.7647 37.3558 21.7022 37.3558C21.4653 37.3558 21.2312 37.3417 21 37.3149V37.0596C21.7276 37.0159 22.3169 36.7692 22.7653 36.3137C23.2616 35.8103 23.5098 34.9853 23.5098 33.8361V22.1333C23.5098 21.5382 23.4393 21.08 23.2969 20.7613C23.1545 20.4426 22.9063 20.2127 22.5524 20.0703C22.1985 19.9293 21.681 19.8362 21 19.7939V19.4964H35.5301C38.8351 19.4964 40.881 21.1491 40.881 23.6436C40.881 26.4991 38.0765 27.8331 35.5695 27.8331H33.6942ZM33.6942 27.262H34.708C36.4325 27.262 37.8833 26.2523 37.8833 23.6647C37.8833 20.5018 35.7951 20.0675 34.7602 20.0675H33.6942V27.262ZM96.8721 33.4271C97.2232 33.4271 97.532 33.2734 97.728 33.1409V33.6457C97.336 34.0123 96.6084 34.5454 95.5143 34.5454C94.5921 34.5454 93.818 33.9602 93.6122 33.0675H93.5572C93.1976 33.7472 92.0993 34.606 90.9008 34.606C89.4626 34.606 88.4036 33.6471 88.4036 32.189C88.4036 31.0496 89.1834 30.291 90.4806 29.8313L93.5572 28.7229V27.2944C93.5572 25.9957 92.6181 25.3964 91.6001 25.3964C90.5609 25.3964 89.6021 25.8364 88.6039 26.8545L88.3049 26.5753C89.1834 25.1567 90.5821 23.9975 92.5998 23.9975C94.5174 23.9975 96.0557 25.2568 96.036 27.2944L95.9965 32.3893C95.9937 33.107 96.294 33.4271 96.8721 33.4271ZM93.5572 29.3885L92.3192 29.8905C91.3604 30.2698 90.7414 30.7098 90.7414 31.7279C90.7414 32.5867 91.3407 33.186 92.1796 33.186C92.6195 33.186 93.2583 32.8462 93.5586 32.4668V29.3885H93.5572ZM143.812 33.4271C144.165 33.4271 144.472 33.272 144.67 33.1409V33.6457C144.278 34.0123 143.55 34.5468 142.455 34.5468C141.532 34.5468 140.758 33.9616 140.552 33.069H140.498C140.138 33.7486 139.04 34.6074 137.841 34.6074C136.403 34.6074 135.344 33.6485 135.344 32.1904C135.344 31.051 136.124 30.2924 137.421 29.8327L140.498 28.7243V27.2944C140.498 25.9957 139.558 25.3964 138.54 25.3964C137.501 25.3964 136.542 25.8364 135.544 26.8545L135.244 26.5753C136.122 25.1567 137.521 23.9975 139.539 23.9975C141.456 23.9975 142.995 25.2568 142.975 27.2944L142.935 32.3893C142.934 33.107 143.233 33.4271 143.812 33.4271ZM140.496 29.3885L139.258 29.8905C138.299 30.2698 137.68 30.7098 137.68 31.7279C137.68 32.5867 138.28 33.186 139.119 33.186C139.558 33.186 140.197 32.8462 140.498 32.4668V29.3885H140.496ZM85.8783 24.704C86.7878 25.4133 87.1896 26.4343 87.1896 27.3057C87.1896 29.5944 85.234 30.7803 83.0076 30.7803C82.421 30.7803 81.8542 30.6971 81.3367 30.5335C81.0491 30.7549 80.8023 31.044 80.8023 31.3824C80.8023 32.1101 81.9881 32.2567 82.696 32.2976L85.1099 32.464C87.0444 32.5895 88.2711 33.2748 88.2711 35.0023C88.2711 37.1866 85.688 38.9972 81.9261 38.9972C79.742 38.9972 78.1811 38.2484 78.1811 36.9158C78.1811 35.7581 78.8185 35.0953 80.4569 34.3085C79.3853 33.9968 79.1371 33.358 79.1371 32.7333C79.1371 31.8788 79.8999 31.1117 80.9335 30.3841C79.6955 29.8623 78.8255 28.8287 78.8255 27.3029C78.8255 25.0142 80.7812 23.8283 83.0076 23.8283C84.0312 23.8283 84.8462 24.061 85.4737 24.4262C85.9418 23.4857 86.8653 22.3914 88.5207 22.3914V24.3444C87.6366 24.0709 86.558 24.2133 85.8783 24.704ZM79.9281 36.0035C79.9281 37.2105 81.3015 37.7506 83.0908 37.7506C84.7969 37.7506 87.105 36.9807 87.105 35.7525C87.105 35.0446 86.7102 34.8782 85.6697 34.795L81.489 34.4847C81.2437 34.4664 81.0223 34.4382 80.8235 34.4001C80.2214 34.8697 79.9281 35.352 79.9281 36.0035ZM84.6093 27.3071C84.6093 25.3513 83.965 24.4149 83.0076 24.4149C82.0502 24.4149 81.4058 25.3513 81.4058 27.3071C81.4058 29.263 82.0502 30.1993 83.0076 30.1993C83.965 30.1993 84.6093 29.263 84.6093 27.3071Z" fill="white"/>
</g>
<defs>
<clipPath id="clip0_5965_6997">
<rect width="141" height="20" fill="white" transform="translate(21 19)"/>
</clipPath>
</defs>
</svg>
