<svg width="184" height="58" viewBox="0 0 184 58" fill="none" xmlns="http://www.w3.org/2000/svg">
<g clip-path="url(#clip0_5965_6802)">
<path d="M96.0964 35.3398V27.1956H99.4242V23.8957H96.0964V19H92.3087V23.893H90.1578V27.1929H92.3101V38.7197H99.4242V35.333L96.0964 35.3398Z" fill="white"/>
<path d="M63.6003 23.8911H59.0753L52.3115 35.3393H49V38.7259H54.2879L59.8221 29.3504V38.7192H64.2862L69.7945 29.3233V38.7192H73.5823V23.8911H69.037L63.6003 33.0866V23.8911Z" fill="white"/>
<path d="M104.814 23.8911H101.026V38.7192H104.814V23.8925V23.8911Z" fill="white"/>
<path d="M104.81 19H101.032V22.3785H104.81V19Z" fill="white"/>
<path d="M82.4728 23.7189H82.4444C78.3713 23.7189 75.1003 27.1055 75.1003 31.3049C75.1003 35.5043 78.3713 38.8909 82.4444 38.8909H82.4728C86.5473 38.8909 89.7885 35.4718 89.7885 31.3049C89.7885 27.138 86.5473 23.7189 82.4728 23.7189ZM82.4728 35.0979H82.4444C80.4369 35.0979 78.888 33.4033 78.888 31.3049C78.888 29.2066 80.4369 27.5119 82.4444 27.5119H82.4728C84.4235 27.5119 86.0049 29.235 86.0049 31.3049C86.0022 33.4005 84.4533 35.0952 82.4728 35.0952V35.0979Z" fill="white"/>
<path d="M128.22 35.5222C129.742 35.5222 130.69 34.6323 130.948 33.8547H134.736C134.593 35.0915 132.956 38.8885 128.217 38.8885C123.938 38.8885 120.777 35.6672 120.777 31.2944C120.777 27.0096 124.024 23.7015 128.101 23.7015C131.978 23.7015 135 27.0949 135 31.2375C135 31.6682 134.971 32.072 134.943 32.3591H124.662C124.918 34.1717 126.009 35.5222 128.22 35.5222ZM124.778 29.6552H131.272C130.866 28.1651 129.865 27.0665 128.113 27.0665C126.277 27.0665 125.208 28.1312 124.783 29.6552H124.778Z" fill="white"/>
<path d="M117.45 23.8954L113.841 33.5947L110.232 23.8954H106.182L111.911 38.7208H115.723L121.486 23.9035H117.45V23.8954Z" fill="white"/>
</g>
<defs>
<clipPath id="clip0_5965_6802">
<rect width="86" height="20" fill="white" transform="translate(49 19)"/>
</clipPath>
</defs>
</svg>
