<svg width="185" height="58" viewBox="0 0 185 58" fill="none" xmlns="http://www.w3.org/2000/svg">
<g clip-path="url(#clip0_5965_7154)">
<path d="M90.3918 19.4277V20.9542H86.3924V22.9326H90.1516V24.4591H86.3924V26.6206H90.3918V28.1471H84.5068V19.4277H90.3918Z" fill="white"/>
<path d="M97.8638 24.8881C97.8638 27.1962 96.4346 28.2953 94.8973 28.2953C94.0205 28.2953 93.2999 27.8923 92.9877 27.4038H92.9756V30.3347H91.1741V23.2029L91.1381 21.6153H92.9156L92.9756 22.4823H92.9877C93.3239 21.9206 94.0926 21.4688 94.9694 21.4688C96.7108 21.4688 97.8638 22.7266 97.8638 24.8881ZM92.8555 24.8881C92.8555 26.207 93.4441 27.0008 94.4529 27.0008C95.4618 27.0008 96.0622 26.207 96.0622 24.8881C96.0622 23.5814 95.4618 22.7754 94.4529 22.7754C93.4441 22.7754 92.8555 23.5814 92.8555 24.8881Z" fill="white"/>
<path d="M100.292 20.8687H98.4426V19.4277H100.292V20.8687ZM100.268 28.1471H98.4666V21.6137H100.268V28.1471Z" fill="white"/>
<path d="M103.804 28.2953C101.906 28.2953 100.813 27.5625 100.777 26.1459H102.579C102.627 26.842 103.095 27.1717 103.804 27.1717C104.525 27.1717 104.969 26.8909 104.969 26.3902C104.969 25.9384 104.657 25.7796 103.924 25.6208L103.336 25.4987C101.714 25.169 100.897 24.7782 100.897 23.5326C100.897 22.3114 102.062 21.4688 103.708 21.4688C105.329 21.4688 106.566 22.1282 106.614 23.4593H104.813C104.777 22.8731 104.26 22.5923 103.708 22.5923C103.143 22.5923 102.663 22.8365 102.663 23.3005C102.663 23.7402 102.987 23.8867 103.636 24.0211L104.224 24.1432C105.846 24.4851 106.734 24.8759 106.734 26.1826C106.734 27.4526 105.557 28.2953 103.804 28.2953Z" fill="white"/>
<path d="M110.333 28.2953C108.279 28.2953 106.97 27.0496 106.97 24.8759C106.97 22.7022 108.279 21.4688 110.333 21.4688C112.386 21.4688 113.683 22.7022 113.683 24.8759C113.683 27.0496 112.386 28.2953 110.333 28.2953ZM110.333 27.0618C111.353 27.0618 111.882 26.3169 111.882 24.8759C111.882 23.4349 111.353 22.7022 110.333 22.7022C109.312 22.7022 108.771 23.4349 108.771 24.8759C108.771 26.3169 109.312 27.0618 110.333 27.0618Z" fill="white"/>
<path d="M113.969 24.8743C113.969 22.5662 115.266 21.4671 116.912 21.4671C117.776 21.4671 118.533 21.919 118.845 22.3586H118.857V19.4277H120.659V26.5595L120.695 28.1471H118.917L118.857 27.28H118.845C118.581 27.8296 117.849 28.2937 116.864 28.2937C115.062 28.2937 113.969 27.0358 113.969 24.8743ZM118.977 24.8743C118.977 23.5554 118.401 22.7616 117.392 22.7616C116.371 22.7616 115.771 23.5554 115.771 24.8743C115.771 26.1932 116.371 26.9992 117.392 26.9992C118.401 26.9992 118.977 26.1932 118.977 24.8743Z" fill="white"/>
<path d="M127.772 25.2545H123.052C123.136 26.5367 123.64 27.1229 124.588 27.1229C125.273 27.1229 125.766 26.7687 125.886 26.0849H127.688C127.531 27.4892 126.198 28.2953 124.637 28.2953C122.475 28.2953 121.274 27.0985 121.274 24.8759C121.274 22.6533 122.643 21.4688 124.588 21.4688C126.666 21.4688 127.772 22.6777 127.772 24.9736V25.2545ZM124.577 22.6289C123.796 22.6289 123.256 23.1174 123.087 24.1554H125.982C125.862 23.1174 125.381 22.6289 124.577 22.6289Z" fill="white"/>
<path d="M87.2138 38.9926C85.1601 38.9926 83.851 37.747 83.851 35.5733C83.851 33.3995 85.1601 32.1661 87.2138 32.1661C89.2676 32.1661 90.5647 33.3995 90.5647 35.5733C90.5647 37.747 89.2676 38.9926 87.2138 38.9926ZM87.2138 37.7592C88.2347 37.7592 88.7631 37.0143 88.7631 35.5733C88.7631 34.1322 88.2347 33.3995 87.2138 33.3995C86.193 33.3995 85.6525 34.1322 85.6525 35.5733C85.6525 37.0143 86.193 37.7592 87.2138 37.7592Z" fill="white"/>
<path d="M95.0182 32.1661C96.4594 32.1661 97.3962 33.0454 97.3962 34.6329V38.846H95.5947V34.9504C95.5947 34.0224 95.1743 33.5094 94.4056 33.5094C93.4809 33.5094 92.9645 34.1933 92.9645 35.3046V38.846H91.1629V33.3995L91.1389 32.3126H92.9164L92.9645 33.2164H93.0005C93.3367 32.618 94.0934 32.1661 95.0182 32.1661Z" fill="white"/>
<path d="M104.406 35.9518H99.6864C99.7705 37.2341 100.275 37.8203 101.224 37.8203C101.908 37.8203 102.401 37.4661 102.521 36.7823H104.322C104.166 38.1866 102.833 38.9926 101.272 38.9926C99.1099 38.9926 97.9089 37.7958 97.9089 35.5733C97.9089 33.3507 99.2781 32.1661 101.224 32.1661C103.301 32.1661 104.406 33.3751 104.406 35.6709V35.9518ZM101.212 33.3262C100.431 33.3262 99.8906 33.8147 99.7224 34.8527H102.617C102.497 33.8147 102.016 33.3262 101.212 33.3262Z" fill="white"/>
<path fill-rule="evenodd" clip-rule="evenodd" d="M79.6364 18H58V40H79.6364V18ZM69.3802 25.7859V24.0001H62.4959V34.2002H69.3802V32.4144H64.7017V29.8859H69.0992V28.1001H64.7017V25.7859H69.3802ZM75.3261 34.2002V24.0001H73.5418C73.2046 25.443 72.5864 25.9001 70.7179 26.043V27.443H73.1906V34.2002H75.3261Z" fill="white"/>
</g>
<defs>
<clipPath id="clip0_5965_7154">
<rect width="70" height="22" fill="white" transform="translate(58 18)"/>
</clipPath>
</defs>
</svg>
