<svg width="185" height="58" viewBox="0 0 185 58" fill="none" xmlns="http://www.w3.org/2000/svg">
<path d="M110.972 20.4116L115.649 25.0916H123.317V32.7626L128 37.4426V20.4116H110.972ZM62 21.5606L56 36.4406H59.927L61.037 33.4946H67.7L68.924 36.4406H72.938L66.296 21.5606H62ZM74.627 21.5606V36.4256H78.341V27.1496L82.355 31.8356H82.919L86.933 27.1676V36.4406H90.647V21.5606H87.41L82.634 27.0956L77.861 21.5606H74.627ZM93.476 21.5606V36.4406H99.647C105.584 36.4406 108.287 33.3026 108.287 29.0246C108.287 24.9446 105.476 21.5606 100.046 21.5606H93.476ZM97.187 24.2906H99.563C103.073 24.2906 104.453 26.4236 104.453 29.0006C104.453 31.1846 103.337 33.7166 99.605 33.7166H97.187V24.2906ZM64.232 25.1096L66.605 30.9056H62.024L64.232 25.1096ZM115.643 26.0306L110.831 30.8396V37.5896H117.569L122.381 32.7686H115.643V26.0306Z" fill="white"/>
</svg>
