<svg width="184" height="58" viewBox="0 0 184 58" fill="none" xmlns="http://www.w3.org/2000/svg">
<g clip-path="url(#clip0_5965_6819)">
<path d="M57.8868 17.932L51.4858 24.268H57.8868V17.932ZM57.8868 17.932V19.6667M51.471 17V41M57.8868 30.6027L51.4858 24.2667M57.8868 30.6027V39.686L51.4858 33.35M57.8868 30.6027L51.4851 24.2667M57.8868 30.6027L57.8861 33.3133H60.6333V24.2667H51.4851M51.4858 24.2667V33.35M51.4858 24.2667L45.0842 30.6027M51.4858 33.35L45.0842 39.686V30.6027M45.0842 30.6027L45.0835 33.3133H42.337V24.2667H51.4851M45.0842 30.6027L51.4851 24.2667M51.4851 24.268L45.0835 17.932V24.268H51.4851Z" stroke="white" stroke-miterlimit="10"/>
<path d="M79.388 25.6853C79.7878 24.946 80.3466 24.3766 81.0673 23.976C81.7866 23.5766 82.6306 23.3766 83.5987 23.3766C84.5667 23.3766 85.3683 23.5733 86.0391 23.9673C86.7105 24.3613 87.2128 24.8833 87.5451 25.5333C87.8775 26.184 88.044 26.8966 88.044 27.6713V28.7446H80.5131C80.5738 29.6753 80.8913 30.4153 81.4657 30.964C82.0401 31.5133 82.8113 31.7873 83.78 31.7873C84.5661 31.7873 85.1688 31.6293 85.5854 31.3133C86.0033 30.9973 86.3081 30.5593 86.5022 29.998H88.2267C87.9968 30.8686 87.5283 31.624 86.8204 32.262C86.1132 32.9006 85.0993 33.2193 83.7807 33.2193C82.7884 33.2193 81.914 33.0193 81.1576 32.62C80.4019 32.2206 79.8174 31.6506 79.4062 30.9106C78.995 30.1706 78.7893 29.3 78.7893 28.2973C78.7893 27.2946 78.9889 26.4246 79.3887 25.6846L79.388 25.6853ZM86.2299 27.4026C86.2299 26.5913 86.0182 25.9566 85.5948 25.4966C85.1715 25.0373 84.5061 24.808 83.598 24.808C82.7513 24.808 82.0583 25.0313 81.5203 25.4786C80.9817 25.926 80.652 26.568 80.5313 27.4026H86.2299ZM90.3064 23.6446V25.13C90.3064 25.214 90.3489 25.2553 90.4338 25.2553C90.4823 25.2553 90.5181 25.2433 90.543 25.2193C90.568 25.1953 90.5916 25.148 90.6151 25.0766C90.9293 24.0986 91.71 23.6093 92.9564 23.6093H93.7546V25.2193H92.7198C91.9088 25.2193 91.3041 25.41 90.9044 25.792C90.5046 26.174 90.305 26.8 90.305 27.6713V32.9506H88.6716V23.644H90.3064V23.6446ZM103.346 30.9906C102.916 31.736 102.359 32.294 101.676 32.6633C100.992 33.0326 100.257 33.218 99.4707 33.218C97.9222 33.218 96.8328 32.61 96.2038 31.3926C96.1553 31.298 96.0946 31.25 96.0224 31.25C95.9503 31.25 95.9132 31.286 95.9132 31.3573V36.35H94.2798V23.6453H95.9132V25.238C95.9132 25.3093 95.9496 25.3453 96.0224 25.3453C96.0953 25.3453 96.1553 25.2973 96.2038 25.2026C96.8328 23.9853 97.9222 23.3773 99.4707 23.3773C100.257 23.3773 100.992 23.5626 101.676 23.932C102.359 24.3013 102.916 24.8593 103.346 25.6053C103.775 26.3506 103.99 27.2493 103.99 28.298C103.99 29.3466 103.775 30.2446 103.346 30.9906ZM101.458 25.7293C100.859 25.1146 100.069 24.8073 99.0898 24.8073C98.1103 24.8073 97.3202 25.1146 96.7215 25.7293C96.1222 26.344 95.9024 27.2 95.9024 28.2973C95.9024 29.3946 96.1222 30.2513 96.7215 30.8653C97.3208 31.48 98.1103 31.7873 99.0898 31.7873C100.069 31.7873 100.859 31.4806 101.458 30.8653C102.057 30.2506 102.357 29.3946 102.357 28.2973C102.357 27.2 102.057 26.344 101.458 25.7293ZM106.36 20.0653V32.95H104.727V20.0666H106.36V20.0653ZM107.705 25.6846C108.104 24.9453 108.664 24.376 109.385 23.9753C110.104 23.576 110.948 23.376 111.915 23.376C112.883 23.376 113.686 23.5726 114.356 23.9666C115.028 24.3606 115.53 24.8826 115.862 25.5326C116.195 26.1833 116.361 26.896 116.361 27.6706V28.744H108.83C108.891 29.6746 109.209 30.4146 109.783 30.9633C110.357 31.5126 111.129 31.7866 112.097 31.7866C112.883 31.7866 113.485 31.6286 113.903 31.3126C114.321 30.9966 114.625 30.5586 114.82 29.9973H116.544C116.314 30.868 115.845 31.6233 115.138 32.2613C114.431 32.9 113.417 33.2186 112.098 33.2186C111.106 33.2186 110.231 33.0186 109.475 32.6193C108.719 32.22 108.135 31.65 107.724 30.91C107.312 30.17 107.107 29.2993 107.107 28.2966C107.107 27.294 107.306 26.424 107.706 25.684H107.705V25.6846ZM114.547 27.402C114.547 26.5906 114.336 25.956 113.912 25.496C113.489 25.0366 112.823 24.8073 111.915 24.8073C111.069 24.8073 110.376 25.0306 109.838 25.478C109.299 25.9253 108.97 26.5673 108.849 27.402H114.547ZM115.635 32.592L119.373 28.028L116.306 24.002V23.644H118.103L120.662 27.1153L123.421 23.644H125.253V24.02L121.733 28.2973L124.982 32.592V32.95H123.221L120.445 29.21L117.469 32.95H115.636V32.592H115.635ZM127.625 20.6153V22.6293H125.717V20.6153H127.625ZM127.526 32.9506H125.892V23.6446H127.526V32.9506ZM128.041 23.6446H129.818V21.1393H131.452V23.6446H133.322L133.781 25.0086H131.452V29.4606C131.452 30.0686 131.436 30.5193 131.406 30.812C131.376 31.1046 131.361 31.2806 131.361 31.34C131.361 31.424 131.385 31.4893 131.433 31.5366C131.482 31.5846 131.548 31.608 131.633 31.608C131.693 31.608 131.872 31.5933 132.169 31.5633C132.465 31.5333 132.922 31.5186 133.539 31.5186H134.174V32.95H132.904C131.863 32.95 131.089 32.7 130.581 32.198C130.073 31.6966 129.819 30.934 129.819 29.9073V25.008H128.042V23.644H128.041V23.6446ZM133.814 23.6446H135.479L138.183 31.452C138.22 31.548 138.278 31.674 138.463 31.674C138.648 31.674 138.706 31.5473 138.742 31.452L141.446 23.6446H142.999V24.0026L139.617 34.042C139.326 34.9013 138.918 35.5006 138.392 35.8406C137.866 36.1806 137.254 36.3506 136.237 36.3506H134.495V34.9193H135.82C136.244 34.9193 136.588 34.934 136.855 34.964C137.12 34.994 137.29 35.0086 137.363 35.0086C137.568 35.0086 137.707 34.9193 137.781 34.7406L138.289 33.3806C138.35 33.238 138.355 33.1306 138.307 33.058C138.283 33.01 138.253 32.98 138.217 32.9686C138.181 32.9566 138.126 32.9506 138.054 32.9506H136.947L133.816 23.6453H133.814V23.6446ZM77.7512 31.006C77.3217 31.7513 76.7649 32.3093 76.0813 32.6786C75.3977 33.048 74.6622 33.2333 73.8762 33.2333C72.3277 33.2333 71.2383 32.6253 70.6093 31.408C70.5608 31.3133 70.5001 31.2653 70.428 31.2653C70.3558 31.2653 70.3187 31.3013 70.3187 31.3726V36.3653H68.6853V23.6606H70.3187V25.2533C70.3187 25.3246 70.3552 25.3606 70.428 25.3606C70.5008 25.3606 70.5608 25.3126 70.6093 25.218C71.2376 24.0006 72.3277 23.3926 73.8762 23.3926C74.6622 23.3926 75.3977 23.578 76.0813 23.9473C76.7649 24.3166 77.3211 24.8746 77.7512 25.62C78.1806 26.3653 78.3956 27.264 78.3956 28.3133C78.3956 29.3626 78.1806 30.2606 77.7512 31.006ZM75.8636 25.7446C75.2643 25.13 74.4748 24.8226 73.4953 24.8226C72.5158 24.8226 71.7257 25.13 71.127 25.7446C70.5277 26.3593 70.308 27.2153 70.308 28.3126C70.308 29.41 70.5277 30.2666 71.127 30.8806C71.7264 31.4953 72.5158 31.8026 73.4953 31.8026C74.4748 31.8026 75.2649 31.496 75.8636 30.8806C76.4629 30.266 76.7622 29.41 76.7622 28.3126C76.7622 27.2153 76.4629 26.3593 75.8636 25.7446Z" fill="white"/>
</g>
<defs>
<clipPath id="clip0_5965_6819">
<rect width="101" height="24" fill="white" transform="translate(42 17)"/>
</clipPath>
</defs>
</svg>
