<svg width="184" height="58" viewBox="0 0 184 58" fill="none" xmlns="http://www.w3.org/2000/svg">
<g clip-path="url(#clip0_5965_7168)">
<path d="M122.541 36.6394C122.8 36.2842 122.957 35.8639 122.992 35.4253C123.028 34.9866 122.941 34.5467 122.742 34.1542C122.543 33.7618 122.24 33.4322 121.865 33.202C121.49 32.9717 121.059 32.8499 120.62 32.8499C120.18 32.8499 119.749 32.9717 119.375 33.202C119 33.4322 118.697 33.7618 118.498 34.1542C118.299 34.5467 118.212 34.9866 118.248 35.4253C118.283 35.8639 118.439 36.2842 118.699 36.6394H122.541Z" fill="white"/>
<path d="M67.01 27.8381C67.3772 27.8558 67.7374 27.9458 68.0698 28.1029C68.4023 28.26 68.7007 28.4812 68.9478 28.7537C69.1949 29.0263 69.3861 29.3449 69.5102 29.6914C69.6344 30.0379 69.6892 30.4055 69.6714 30.7732C69.6704 30.7953 69.6691 30.8174 69.6675 30.8394C69.6951 31.205 69.6505 31.5725 69.5363 31.9208C69.4221 32.2692 69.2405 32.5916 69.0018 32.8697C68.7632 33.1477 68.4721 33.376 68.1454 33.5415C67.8186 33.7069 67.4625 33.8063 67.0974 33.834C67.0683 33.8362 67.0392 33.8379 67.01 33.8392C65.4943 33.8392 64.3901 32.6432 64.3901 30.8394C64.3901 29.0522 65.4966 27.8381 67.01 27.8381ZM69.6667 20V25.962C68.7554 25.1093 67.5435 24.6535 66.2969 24.6944C63.4251 24.6944 61 27.1956 61 30.8371C61 34.5148 63.4251 36.9957 66.2969 36.9957C66.916 37.0172 67.5331 36.9144 68.1118 36.6933C68.6906 36.4723 69.2193 36.1374 69.6667 35.7086V36.6372H73.1268V20H69.6667Z" fill="white"/>
<path d="M80.5276 27.8366C80.8946 27.8545 81.2545 27.9445 81.5868 28.1016C81.9191 28.2587 82.2172 28.4798 82.4641 28.7523C82.7111 29.0247 82.902 29.3432 83.026 29.6896C83.15 30.0359 83.2047 30.4033 83.1869 30.7708C83.1858 30.7932 83.1844 30.8156 83.1828 30.838C83.2103 31.2037 83.1657 31.5712 83.0514 31.9196C82.937 32.268 82.7553 32.5905 82.5165 32.8686C82.2777 33.1467 81.9866 33.3749 81.6597 33.5404C81.3328 33.7058 80.9765 33.8051 80.6113 33.8327C80.5834 33.8348 80.5555 33.8365 80.5276 33.8378C79.0104 33.8378 77.9062 32.6418 77.9062 30.838C77.9092 29.0515 79.0104 27.8366 80.5276 27.8366ZM79.813 24.6952C76.9412 24.6952 74.5161 27.1942 74.5161 30.838C74.5161 34.5156 76.9412 36.9965 79.813 36.9965C80.4321 37.0181 81.0492 36.9153 81.6279 36.6942C82.2067 36.4732 82.7354 36.1383 83.1828 35.7094V36.6372H86.6429V25.0326H83.1828V25.9613C82.2712 25.1094 81.0593 24.6543 79.813 24.696" fill="white"/>
<path d="M101.284 25.0333L99.5181 31.3003L97.4669 25.0333H95.0245L92.9733 31.2845L91.1899 25.0333H87.8051L91.2832 36.6568H94.2919L96.2544 30.3717L98.1988 36.6568H101.208L104.686 25.0333H101.284Z" fill="white"/>
<path d="M112.624 24.6959C111.998 24.6854 111.376 24.8088 110.801 25.0579C110.226 25.307 109.711 25.6761 109.29 26.1405V25.0326H105.83V36.6387H109.29V31.2469C109.29 29.016 110.181 28.0166 111.536 28.0166C112.642 28.0166 113.409 28.9445 113.409 30.3009V36.6409H116.832V29.5169C116.832 26.6059 115.155 24.6967 112.623 24.6967" fill="white"/>
</g>
<defs>
<clipPath id="clip0_5965_7168">
<rect width="62" height="17" fill="white" transform="translate(61 20)"/>
</clipPath>
</defs>
</svg>
