<svg width="185" height="58" viewBox="0 0 185 58" fill="none" xmlns="http://www.w3.org/2000/svg">
<g clip-path="url(#clip0_5965_6549)">
<path d="M73.213 29.7516C73.1825 26.7147 75.8298 25.2556 75.9489 25.1861C74.4588 23.122 72.1443 22.8382 71.3199 22.8064C69.3504 22.6153 67.4756 23.9065 66.4741 23.9065C65.4726 23.9065 63.9306 22.8325 62.297 22.8643C60.1474 22.8933 58.1657 24.0484 57.0573 25.8723C54.8283 29.5374 56.4894 34.9801 58.6665 37.9591C59.7321 39.4153 60.9962 41.0568 62.6634 40.996C64.2695 40.9352 64.8741 40.0117 66.81 40.0117C68.7459 40.0117 69.2924 40.996 70.9871 40.9671C72.7123 40.9352 73.8054 39.479 74.8619 38.017C76.0772 36.3234 76.581 34.6877 76.6115 34.6009C76.5718 34.5864 73.2497 33.3791 73.213 29.7516Z" fill="white"/>
<path d="M70.0282 20.8331C70.9137 19.8169 71.5091 18.407 71.3472 17C70.074 17.0492 68.532 17.8048 67.619 18.821C66.8007 19.7185 66.0831 21.1544 66.2785 22.5324C67.6923 22.6367 69.1457 21.8463 70.0282 20.8331ZM84.3793 32.7375L82.9137 36.9498H81.0297L85.8266 23.5631H88.0251L92.8404 36.9498H90.8923L89.3839 32.7375H84.3793ZM89.0083 31.3855L87.6282 27.5322C87.3137 26.6579 87.106 25.8647 86.8953 25.0888H86.8556C86.645 25.882 86.4159 26.6955 86.1442 27.5119L84.764 31.3826L89.0083 31.3855ZM94.2694 30.4736C94.2694 29.2432 94.2297 28.2473 94.1839 27.3353H95.8388L95.9243 28.9855H95.964C96.7182 27.813 97.9121 27.1182 99.5671 27.1182C102.019 27.1182 103.86 29.084 103.86 32.0051C103.86 35.4618 101.64 37.1669 99.2526 37.1669C97.9121 37.1669 96.7396 36.6111 96.132 35.6586H96.0923V40.8813H94.2694V30.4736ZM96.0892 33.0357C96.0892 33.2963 96.1289 33.5308 96.1747 33.7508C96.5106 34.9609 97.619 35.7976 98.9411 35.7976C100.889 35.7976 102.022 34.2893 102.022 32.0832C102.022 30.1551 100.953 28.5107 99.0053 28.5107C97.7503 28.5107 96.5778 29.3648 96.2175 30.6762C96.1533 30.8934 96.0923 31.1539 96.0923 31.3913L96.0892 33.0357ZM105.766 30.4736C105.766 29.2432 105.726 28.2473 105.68 27.3353H107.335L107.421 28.9855H107.46C108.214 27.813 109.408 27.1182 111.063 27.1182C113.515 27.1182 115.356 29.084 115.356 32.0051C115.356 35.4618 113.137 37.1669 110.749 37.1669C109.408 37.1669 108.236 36.6111 107.628 35.6586H107.588V40.8813H105.766V30.4736ZM107.588 33.0357C107.588 33.2963 107.628 33.5308 107.674 33.7508C108.01 34.9609 109.118 35.7976 110.44 35.7976C112.388 35.7976 113.521 34.2893 113.521 32.0832C113.521 30.1551 112.453 28.5107 110.504 28.5107C109.25 28.5107 108.077 29.3648 107.717 30.6762C107.653 30.8934 107.592 31.1539 107.592 31.3913L107.588 33.0357ZM117.265 22.848H119.109V36.9469H117.265V22.848ZM122.816 32.4596C122.856 34.822 124.45 35.7976 126.291 35.7976C127.61 35.7976 128.407 35.5805 129.097 35.3025L129.411 36.5532C128.764 36.8311 127.653 37.1496 126.04 37.1496C122.92 37.1496 121.054 35.2041 121.054 32.3033C121.054 29.4024 122.856 27.1182 125.808 27.1182C129.118 27.1182 129.998 29.8772 129.998 31.6461C129.998 32.0051 129.958 32.2801 129.934 32.4596H122.816ZM128.221 31.2089C128.242 30.0972 127.738 28.3689 125.665 28.3689C123.799 28.3689 122.984 29.9988 122.837 31.2089H128.221Z" fill="white"/>
</g>
<defs>
<clipPath id="clip0_5965_6549">
<rect width="74" height="24" fill="white" transform="translate(56 17)"/>
</clipPath>
</defs>
</svg>
