<svg width="184" height="58" viewBox="0 0 184 58" fill="none" xmlns="http://www.w3.org/2000/svg">
<g clip-path="url(#clip0_5965_6523)">
<path d="M53.172 16.2847C51.4909 15.4878 49.4917 15 47.5933 15C41.8632 15 38.4356 19.7632 38.8044 24.4194C38.9715 26.5254 40.0011 28.563 41.7037 30.1564C42.3135 30.7303 42.9951 31.222 43.7311 31.6194C43.1742 30.953 42.8063 30.1483 42.6661 29.2897C42.2853 26.9497 43.8239 23.5077 47.7533 23.5077C51.9793 23.5077 56.6318 27.5428 57.0252 32.5045C57.2658 35.5398 56.1201 38.2722 54.1832 40.1811C58.1892 37.8442 60.8829 33.4882 60.8829 28.5C60.8829 23.1027 57.7295 18.4452 53.172 16.2847Z" fill="white"/>
<path d="M56.0785 32.5804C55.9114 30.4744 54.8818 28.4368 53.1792 26.8433C52.5694 26.2695 51.8878 25.7777 51.1518 25.3804C51.7087 26.0468 52.0766 26.8515 52.2168 27.71C52.5976 30.05 51.059 33.4921 47.1296 33.4921C42.9036 33.4921 38.2511 29.4569 37.8577 24.4948C37.6171 21.4595 38.7628 18.7271 40.6997 16.8182C36.6937 19.1555 34 23.5115 34 28.4998C34 33.8971 37.1534 38.5546 41.7109 40.715C43.392 41.512 45.3912 41.9998 47.2896 41.9998C53.0197 41.9998 56.4473 37.2365 56.0785 32.5804Z" fill="white"/>
<path d="M71.8953 21.75H67.6133V35.25H71.8953C76.6186 35.25 78.7885 32.6661 78.7885 28.5198C78.7885 24.3532 76.6186 21.75 71.8953 21.75ZM71.8375 33.63H69.5144V23.3506H71.8375C75.5626 23.3506 76.8494 25.3176 76.8494 28.5189C76.8494 31.7008 75.5626 33.63 71.8375 33.63Z" fill="white"/>
<path d="M84.4613 25.4512C81.6188 25.4512 79.6797 27.4762 79.6797 30.5038C79.6797 33.4927 81.6386 35.4794 84.4416 35.4794C86.6885 35.4794 88.2437 34.1294 88.7621 32.3357H86.861C86.477 33.2807 85.6325 33.8977 84.4416 33.8977C82.963 33.8977 81.6578 32.8568 81.5422 30.9088H89.0117C89.0309 30.5618 89.0309 30.2725 89.0309 30.002C89.0309 27.5338 87.2643 25.4512 84.4613 25.4512ZM81.5812 29.5588C81.7922 27.9005 83.0212 27.0325 84.442 27.0325C85.9398 27.0325 87.0729 27.9968 87.1496 29.5588H81.5812Z" fill="white"/>
<path d="M94.8126 25.4531C91.9707 25.4531 90.0315 27.4781 90.0315 30.5057C90.0315 33.4946 91.9899 35.4814 94.7934 35.4814C97.0399 35.4814 98.5951 34.1314 99.1139 32.3377H97.2128C96.8284 33.2827 95.9838 33.8996 94.7934 33.8996C93.3148 33.8996 92.0092 32.8588 91.894 30.9107H99.363C99.3823 30.5638 99.3823 30.2744 99.3823 30.004C99.3823 27.5357 97.6156 25.4531 94.8126 25.4531ZM91.9335 29.5607C92.1449 27.9025 93.3735 27.0344 94.7947 27.0344C96.2925 27.0344 97.4252 27.9988 97.5018 29.5607H91.9335Z" fill="white"/>
<path d="M105.796 25.4512C104.087 25.4512 103.012 26.2805 102.417 27.2062L102.224 25.6829H100.516V39.4903H102.418V33.7438C103.071 34.8427 104.262 35.4794 105.779 35.4794C108.582 35.4794 110.503 33.377 110.503 30.4844C110.503 27.5918 108.58 25.4512 105.796 25.4512ZM105.489 33.8212C103.703 33.8212 102.417 32.4712 102.417 30.4655C102.417 28.4792 103.703 27.1099 105.489 27.1099C107.294 27.1099 108.561 28.4792 108.561 30.4655C108.561 32.4707 107.294 33.8207 105.489 33.8207V33.8212Z" fill="white"/>
<path d="M118.46 30.8715L113.813 21.75H111.586V35.25H113.487V25.0863L117.73 33.3213H119.19L123.414 25.0863V35.25H125.315V21.75H123.087L118.46 30.8715Z" fill="white"/>
<path d="M128.698 25.6836H126.797V35.2492H128.698V25.6836Z" fill="white"/>
<path d="M127.736 21.3652C127.025 21.3652 126.488 21.867 126.488 22.5613C126.488 23.2557 127.026 23.7763 127.736 23.7763C128.466 23.7763 129.004 23.2557 129.004 22.5613C129.004 21.867 128.466 21.3652 127.736 21.3652Z" fill="white"/>
<path d="M135.283 25.4512C133.805 25.4512 132.615 26.1842 132 27.3605L131.865 25.6829H130.176V35.2486H132.079V30.3107C132.079 28.2281 133.212 27.0901 134.767 27.0901C136.304 27.0901 137.091 28.0351 137.091 29.9251V35.2486H138.973V29.7325C138.97 26.8592 137.568 25.4512 135.283 25.4512Z" fill="white"/>
<path d="M148.099 21.3223V27.1466C147.447 26.0473 146.256 25.411 144.72 25.411C141.917 25.411 140.016 27.5129 140.016 30.406C140.016 33.299 141.917 35.4392 144.701 35.4392C146.41 35.4392 147.485 34.6103 148.099 33.6842L148.292 35.2079H150V21.3223H148.099ZM145.008 33.7805C143.222 33.7805 141.936 32.4112 141.936 30.4249C141.936 28.4192 143.222 27.0692 145.008 27.0692C146.813 27.0692 148.08 28.4192 148.08 30.4249C148.08 32.4112 146.813 33.7805 145.008 33.7805H145.008Z" fill="white"/>
</g>
<defs>
<clipPath id="clip0_5965_6523">
<rect width="116" height="27" fill="white" transform="translate(34 15)"/>
</clipPath>
</defs>
</svg>
