<svg width="185" height="58" viewBox="0 0 185 58" fill="none" xmlns="http://www.w3.org/2000/svg">
<g clip-path="url(#clip0_6074_3254)">
<path d="M70.5882 29.9243H72.5003C75.3236 29.9243 77.1759 28.661 77.1759 24.3781C77.1759 20.8357 75.7347 18.7706 73.3517 18.7706H72.1764C70.8236 18.7706 70.5882 19.1405 70.5882 19.7565V29.9243ZM70.5882 30.3249V37.8429C70.5882 38.9822 70.9999 39.2595 73.0291 39.2595H73.7342V39.6294H64.114V39.2595H64.497C66.4378 39.2595 66.7019 38.9822 66.7019 37.7496V20.1596C66.7019 19.051 66.2609 18.7731 64.497 18.7731H64.114V18.4038H74.2899C77.3785 18.4038 81.4082 19.8523 81.4082 24.3806C81.4082 28.0782 77.9073 30.3274 73.231 30.3274L70.5882 30.3249ZM91.915 40C88.7386 40 86.768 37.9049 85.886 37.9049C85.3273 37.9049 84.6796 38.8901 84.3265 39.63H84.0277V32.6973H84.3809C86.2045 37.041 89.2041 39.5994 91.7627 39.5994C94.586 39.5994 95.8802 37.5662 95.8802 35.4091C95.8802 32.5433 93.468 31.7114 90.6447 30.7875C87.234 29.6782 84.3809 28.6304 84.3809 24.1014C84.3809 20.8044 86.851 18 90.7337 18C93.0575 18 94.8806 19.6332 95.5862 19.6332C96.0278 19.6332 96.4389 19.1099 96.8799 18.2779H97.1452V24.5634H96.8219C95.5862 21.421 93.6156 18.4326 90.9393 18.4326C88.0281 18.4326 87.1151 20.4983 87.0858 22.1884C87.0566 25.3002 89.2035 26.0695 91.8505 26.9634C95.0562 28.0732 98.4382 28.8745 98.4382 33.6807C98.4382 37.4366 95.6149 39.9969 91.9097 39.9969M110.766 40C106.207 40 101.178 35.9631 101.178 29.0623C101.178 21.975 106.471 18 111.088 18C114.265 18 116.029 19.6951 116.618 19.6951C117.266 19.6951 117.589 19.1712 118.06 18.2779H118.324V25.6106H117.971C116.765 21.667 114.883 18.4319 111.265 18.4319C108.001 18.4319 105.529 21.605 105.529 28.9383C105.529 34.1146 106.441 39.6294 111 39.6294C113.177 39.6294 114.824 38.0576 114.911 36.7637V31.6188C114.911 30.5095 114.47 30.2322 112.559 30.2322H111.881V29.8623H120.881V30.2322H120.557C119.087 30.2322 118.557 30.42 118.557 31.6188V39.6313H118.234C117.91 38.8914 117.264 37.9981 116.645 37.9981C115.676 37.9981 114.293 40.0013 110.763 40.0013" fill="#F3F5F7"/>
</g>
<defs>
<clipPath id="clip0_6074_3254">
<rect width="57" height="22" fill="white" transform="translate(64 18)"/>
</clipPath>
</defs>
</svg>
