<svg width="185" height="58" viewBox="0 0 185 58" fill="none" xmlns="http://www.w3.org/2000/svg">
<path fill-rule="evenodd" clip-rule="evenodd" d="M101.86 35.4542C97.2449 38.8667 90.5316 40.6849 84.7414 40.6849C76.6295 40.6849 69.3568 37.6919 63.8183 32.7129C63.3987 32.3213 63.7624 31.7898 64.2938 32.0975C70.2519 35.566 77.6085 37.636 85.2169 37.636C90.3358 37.636 95.9861 36.573 101.189 34.3632C101.972 34.0555 102.615 34.8947 101.86 35.4542Z" fill="#FF9900"/>
<path fill-rule="evenodd" clip-rule="evenodd" d="M103.79 33.2444C103.203 32.4892 99.8742 32.8808 98.3917 33.0766C97.9442 33.1325 97.8602 32.7409 98.2798 32.4612C100.937 30.5871 105.273 31.1465 105.776 31.7619C106.28 32.3773 105.636 36.7409 103.147 38.8109C102.755 39.1186 102.392 38.9507 102.56 38.5311C103.119 37.1325 104.378 34.0276 103.79 33.2444Z" fill="#FF9900"/>
<path fill-rule="evenodd" clip-rule="evenodd" d="M98.4756 19.3143V17.4961C98.4756 17.2164 98.6714 17.0486 98.9232 17.0486H107.035C107.287 17.0486 107.511 17.2444 107.511 17.4961V19.0346C107.511 19.2863 107.287 19.622 106.895 20.1814L102.699 26.1675C104.266 26.1395 105.916 26.3633 107.315 27.1465C107.622 27.3143 107.706 27.594 107.734 27.8458V29.7758C107.734 30.0556 107.455 30.3633 107.147 30.1954C104.657 28.8807 101.329 28.7409 98.5875 30.2234C98.3078 30.3633 98.0001 30.0835 98.0001 29.8038V27.9577C98.0001 27.6779 98.0001 27.1744 98.3078 26.7269L103.175 19.7619H98.9512C98.6994 19.7619 98.4756 19.5661 98.4756 19.3143ZM68.9092 30.587H66.4477C66.2239 30.5591 66.0281 30.3912 66.0001 30.1674V17.5241C66.0001 17.2723 66.2239 17.0765 66.4756 17.0765H68.7693C69.0211 17.0765 69.1889 17.2723 69.2169 17.4961V19.1465H69.2728C69.8602 17.5521 71.0071 16.7968 72.5176 16.7968C74.056 16.7968 75.0351 17.5521 75.7064 19.1465C76.2938 17.5521 77.6644 16.7968 79.119 16.7968C80.154 16.7968 81.2728 17.2164 81.9721 18.1954C82.7554 19.2584 82.5875 20.7968 82.5875 22.1675V30.1674C82.5875 30.4192 82.3637 30.615 82.112 30.615H79.6784C79.4267 30.587 79.2309 30.3912 79.2309 30.1674V23.4542C79.2309 22.9227 79.2868 21.58 79.1749 21.0765C78.9791 20.2374 78.4477 19.9856 77.7204 19.9856C77.133 19.9856 76.4896 20.3772 76.2379 21.0206C75.9861 21.664 76.0141 22.7269 76.0141 23.4542V30.1674C76.0141 30.4192 75.7903 30.615 75.5386 30.615H73.077C72.8253 30.587 72.6295 30.3912 72.6295 30.1674V23.4542C72.6295 22.0556 72.8533 19.9577 71.119 19.9577C69.3567 19.9577 69.4127 21.9716 69.4127 23.4542V30.1674C69.3847 30.3912 69.1889 30.587 68.9092 30.587ZM114.504 16.7968C118.168 16.7968 120.154 19.9297 120.154 23.9297C120.154 27.7898 117.972 30.8667 114.504 30.8667C110.923 30.8667 108.965 27.7339 108.965 23.8178C108.937 19.8737 110.923 16.7968 114.504 16.7968ZM114.504 19.3982C112.685 19.3982 112.574 21.8877 112.574 23.4262C112.574 24.9647 112.546 28.2654 114.476 28.2654C116.378 28.2654 116.49 25.608 116.49 23.9856C116.49 22.9227 116.434 21.636 116.126 20.629C115.846 19.7339 115.287 19.3982 114.504 19.3982ZM124.881 30.587H122.42C122.168 30.5591 121.972 30.3633 121.972 30.1395V17.4681C122 17.2444 122.196 17.0486 122.448 17.0486H124.741C124.965 17.0486 125.133 17.2164 125.189 17.4122V19.3423H125.245C125.944 17.608 126.895 16.7968 128.602 16.7968C129.692 16.7968 130.783 17.1884 131.483 18.2793C132.126 19.2863 132.126 20.9926 132.126 22.2234V30.1954C132.098 30.4192 131.902 30.587 131.65 30.587H129.189C128.965 30.5591 128.769 30.3912 128.741 30.1954V23.3143C128.741 21.9157 128.909 19.9017 127.203 19.9017C126.615 19.9017 126.056 20.2933 125.776 20.9087C125.441 21.6919 125.385 22.4472 125.385 23.3143V30.1395C125.357 30.3912 125.133 30.587 124.881 30.587ZM92.0141 24.5451C92.0141 25.4961 92.0421 26.3073 91.5665 27.1744C91.1749 27.8737 90.5595 28.2933 89.8602 28.2933C88.9092 28.2933 88.3498 27.5661 88.3498 26.5031C88.3498 24.4052 90.2239 24.0136 92.0141 24.0136V24.5451ZM94.5036 30.5591C94.3358 30.6989 94.112 30.7269 93.9162 30.615C93.105 29.9437 92.9372 29.608 92.4896 28.9647C91.147 30.3353 90.1679 30.7549 88.4337 30.7549C86.3637 30.7549 84.7414 29.4682 84.7414 26.9227C84.7414 24.9087 85.8323 23.566 87.3707 22.8947C88.7134 22.3073 90.5875 22.1954 92.0141 22.0276V21.7199C92.0141 21.1325 92.07 20.4332 91.7064 19.9297C91.3987 19.4821 90.8393 19.2863 90.3358 19.2863C89.3847 19.2863 88.5456 19.7619 88.3498 20.7689C88.2938 20.9926 88.154 21.2164 87.9302 21.2164L85.5526 20.9647C85.3567 20.9087 85.133 20.7689 85.1889 20.4612C85.7484 17.5521 88.3498 16.6849 90.6994 16.6849C91.9022 16.6849 93.4686 16.9926 94.4197 17.9157C95.6225 19.0346 95.5106 20.5451 95.5106 22.1675V25.9996C95.5106 27.1465 95.9861 27.65 96.4337 28.2933C96.6015 28.5171 96.6295 28.7968 96.4337 28.9367C95.9022 29.3563 95.0071 30.1395 94.5036 30.5591ZM59.7064 24.5451C59.7064 25.4961 59.7344 26.3073 59.2588 27.1744C58.8672 27.8737 58.2519 28.2933 57.5526 28.2933C56.6015 28.2933 56.0421 27.5661 56.0421 26.5031C56.0421 24.4052 57.9162 24.0136 59.7064 24.0136V24.5451ZM62.1679 30.5591C62.0001 30.6989 61.7763 30.7269 61.5805 30.615C60.7693 29.9437 60.6015 29.608 60.154 28.9647C58.8113 30.3353 57.8323 30.7549 56.098 30.7549C54.0281 30.7549 52.4057 29.4682 52.4057 26.9227C52.4057 24.9087 53.4966 23.566 55.0351 22.8947C56.3777 22.3073 58.2519 22.1954 59.6784 22.0276V21.7199C59.6784 21.1325 59.7344 20.4332 59.3707 19.9297C59.063 19.4821 58.5036 19.2863 58.0001 19.2863C57.0491 19.2863 56.2099 19.7619 56.0141 20.7689C55.9581 20.9926 55.8183 21.2164 55.5945 21.2164L53.2169 20.9647C53.0211 20.9087 52.7973 20.7689 52.8533 20.4612C53.4127 17.5521 56.0141 16.6849 58.3637 16.6849C59.5665 16.6849 61.133 16.9926 62.084 17.9157C63.2868 19.0346 63.1749 20.5451 63.1749 22.1675V25.9996C63.1749 27.1465 63.6505 27.65 64.098 28.2933C64.2658 28.5171 64.2938 28.7968 64.098 28.9367C63.5665 29.3563 62.6714 30.1395 62.1679 30.5591Z" fill="white"/>
</svg>
