<svg width="184" height="58" viewBox="0 0 184 58" fill="none" xmlns="http://www.w3.org/2000/svg">
<g clip-path="url(#clip0_5961_6481)">
<path d="M45.6476 24.1084L46.3868 25.4744H53.2767L47.4296 34.7968H49.036L55.9607 24.1084H45.6476Z" fill="#EA4335"/>
<path d="M41.89 22.382L41 23.7226L47.0763 34.6081L52.5504 25.8808H50.8031L47.0773 31.5795L41.89 22.382Z" fill="#EA4335"/>
<path d="M55.16 22.2031H42.2473L47.1022 30.8105L48.0428 29.3734L44.9749 23.7022H55.9905L55.16 22.2031Z" fill="#EA4335"/>
<path d="M132.122 22.2433H142.972V24.494H138.854V34.7566H136.24V24.494H132.122V22.2433Z" fill="white"/>
<path d="M120.494 22.2433H123.329L128.491 30.7507H128.627V22.2433H131.098V34.7566H128.262L123.1 26.2493H122.965V34.7566H120.494V22.2433Z" fill="white"/>
<path d="M110.358 22.2433H119.196V24.4071H112.948V27.3703H118.347V29.5341H112.948V32.5929H119.315V34.7566H110.358V22.2433Z" fill="white"/>
<path d="M106.026 22.2433H108.641V34.7566H106.026V22.2433Z" fill="white"/>
<path d="M98.5336 22.2433C102.388 22.2433 104.858 24.633 104.858 28.5C104.858 32.367 102.388 34.7566 98.5336 34.7566H93.6519V22.2433H98.5336ZM96.2499 32.5321H98.4316C100.673 32.5321 102.235 31.1851 102.235 28.5C102.235 25.8148 100.673 24.4679 98.4316 24.4679H96.2499V32.5321Z" fill="white"/>
<path d="M85.2454 22.2433H88.5562L92.7331 34.496V34.7566H90.11L89.1591 31.8021H84.5746L83.6324 34.7566H81.0685V34.496L85.2454 22.2433ZM85.2537 29.5862H88.4883L86.9349 24.7373H86.7992L85.2537 29.5862Z" fill="white"/>
<path d="M76.7626 22.2433C79.0208 22.2433 80.8121 23.512 80.8121 25.9712C80.8121 28.4044 79.1396 29.6818 77.0936 29.6818H76.5673L80.8971 34.496V34.7566H77.9935L73.511 29.6383H73.3412V34.7566H70.7774V22.2433H76.7626ZM73.3412 27.6831H76.355C77.5011 27.6831 78.2822 27.1357 78.2822 26.0407C78.2822 24.9458 77.5011 24.4071 76.355 24.4071H73.3412V27.6831Z" fill="white"/>
<path d="M57.5778 28.5C57.5778 24.3897 59.9124 22 63.8686 22C67.7823 22 69.3613 24.4071 69.4547 26.3536V26.6143H67.0776C66.9503 25.5889 66.2966 24.1725 63.928 24.1725C61.5255 24.1725 60.218 25.7627 60.218 28.5C60.218 31.246 61.4745 32.8102 63.911 32.8102C66.3305 32.8102 67.0691 31.2373 67.1371 30.1858H63.4611V28.1089H69.633V28.8997C69.633 32.5321 67.8077 35 63.8516 35C59.9039 35 57.5778 32.6103 57.5778 28.5Z" fill="white"/>
</g>
<defs>
<clipPath id="clip0_5961_6481">
<rect width="102" height="13" fill="white" transform="translate(41 22)"/>
</clipPath>
</defs>
</svg>
