<svg width="185" height="58" viewBox="0 0 185 58" fill="none" xmlns="http://www.w3.org/2000/svg">
<path d="M69.6387 18.3153C69.7968 18.3153 69.9549 18.7908 69.9549 19.2666C69.9549 19.3348 69.7291 19.4931 69.6161 19.4931C69.458 19.4931 67.2229 19.425 66.9746 19.425C66.9295 19.425 66.8165 19.561 66.8165 19.6062C66.7714 20.0591 66.8391 25.0194 66.8842 25.4044C66.9743 26.1972 67.1324 26.401 68.397 26.6048C68.7808 26.6727 68.9161 26.8539 68.9161 26.9447C68.9161 27.1711 68.6002 27.2164 68.3291 27.2164C68.0579 27.2164 67.0197 27.1711 66.4552 27.1711C65.6425 27.1711 64.4233 27.2845 64.1973 27.2845C63.8814 27.2845 63.6328 27.194 63.6328 27.0354C63.6328 26.9221 63.8585 26.7637 64.1068 26.673C65.0777 26.4013 65.1002 26.1746 65.1228 25.1556C65.1453 24.2269 65.1679 21.5092 65.1679 20.2861C65.1679 19.516 65.0326 19.4482 64.9421 19.4482C64.7164 19.4482 64.2424 19.4482 63.9938 19.4934C63.8808 19.4934 63.723 19.2669 63.7906 19.1083C63.8132 19.0179 64.3777 18.7685 64.8971 18.3608C65.0552 18.2248 65.1904 18.0891 65.1904 17.9758C65.2355 16.6167 65.3485 15.5749 65.7549 14.601C66.2289 13.4684 66.7934 12.653 67.7868 11.9284C68.6898 11.2491 69.5025 11 70.3607 11C70.8347 11 71.4443 11.136 71.8056 11.4303C72.0313 11.6115 72.1894 11.9287 72.1894 12.2004C72.1894 12.5173 71.8958 13.0384 71.5798 13.1518C71.4668 13.197 71.309 13.2199 71.1735 13.2199C71.0154 13.2199 70.8801 13.0839 70.5639 12.7667C70.1349 12.3816 69.5705 12.0647 68.9834 12.0647C68.4415 12.0647 67.99 12.3364 67.5836 12.9932C67.0417 13.9445 66.8385 15.1675 66.8385 18.1346C66.8385 18.2251 66.9064 18.3385 66.9741 18.3385C68.3513 18.3385 69.5479 18.3159 69.6381 18.3159L69.6387 18.3153Z" fill="white"/>
<path d="M77.443 25.5168C77.5786 25.4035 77.7818 25.0636 77.7818 24.9732L77.8269 19.7638C77.8269 19.6278 77.5786 19.3109 77.443 19.2654C77.1043 19.1749 76.6077 19.0389 76.4045 18.9937C76.2464 18.9485 75.9531 18.8125 75.9531 18.6313C75.9531 18.5405 76.2467 18.4274 76.4725 18.4274C77.3754 18.4274 78.3688 18.3141 78.8882 18.1784C79.1139 18.1105 79.272 18.0879 79.4301 18.0879C79.5432 18.0879 79.5883 18.337 79.5883 18.4277C79.5432 19.0619 79.3625 24.0903 79.3625 25.9474C79.3625 25.9927 79.4527 26.2646 79.6333 26.2646C79.7914 26.2646 80.4912 26.1513 80.7623 26.1513C80.8525 26.1513 81.0106 26.5137 81.0331 26.5816C81.0331 26.6494 80.875 26.808 80.7849 26.808C80.1978 26.8533 79.2495 27.1026 78.7304 27.2383C78.3466 27.3517 77.9853 27.4422 77.9402 27.4422C77.85 27.4422 77.7144 27.2835 77.7144 27.1249C77.7144 26.9892 77.7824 26.5587 77.8049 26.1736C77.8049 26.0602 77.737 25.9924 77.6919 26.015C77.0372 26.4679 76.134 27.0568 75.8406 27.1702C75.4568 27.3288 74.9599 27.4419 74.3278 27.4419C73.515 27.4419 72.7925 27.0794 72.341 26.3774C72.1829 26.1284 72.0251 25.6752 72.0251 25.3127C72.0251 23.682 72.0251 21.1226 71.98 19.9222C71.9574 19.288 71.5285 19.1973 71.1447 19.0387C70.9415 18.9482 70.7383 18.8348 70.7383 18.631C70.7383 18.5628 70.8513 18.4271 71.1221 18.4271C71.7542 18.4271 73.4251 18.1781 73.5153 18.1781C73.6055 18.1781 73.696 18.3819 73.696 18.5179C73.7185 19.288 73.6281 23.5686 73.6281 24.5878C73.6281 25.1089 73.8763 25.6296 74.1925 25.8564C74.7796 26.3093 75.186 26.3093 75.7279 26.3093C76.2698 26.3093 76.8794 26.015 77.4439 25.5166L77.443 25.5168Z" fill="white"/>
<path d="M87.2727 18.2466C87.2952 18.2466 87.5209 18.36 87.5209 18.4278C87.5209 18.36 87.5889 18.9941 87.5889 19.2884C87.5889 19.4923 87.1599 19.5375 87.0018 19.5375H84.541C84.428 19.5375 84.3378 19.6509 84.3378 19.6961C84.3153 20.149 84.2927 23.4786 84.2927 24.5656C84.2927 25.1319 84.4283 25.4262 84.6765 25.6753C85.1055 26.0604 85.5795 26.1056 86.0538 26.1056C86.3475 26.1056 86.8215 25.9696 87.1602 25.7658C87.3634 25.6524 87.4085 25.6298 87.499 25.6298C87.5215 25.6298 87.6345 25.675 87.6345 25.8788C87.6345 26.0601 87.4764 26.2865 87.3186 26.4451C86.709 27.034 85.9188 27.4417 84.9029 27.4417C83.9774 27.4417 83.1869 26.8754 82.916 26.3773C82.6677 25.9922 82.6227 25.5167 82.6227 24.8823C82.6227 24.0443 82.7128 20.6469 82.7128 19.8541C82.7128 19.6955 82.3065 19.5369 81.855 19.4009C81.6743 19.3331 81.5391 19.2197 81.5391 19.1519C81.5391 19.0614 81.6067 18.9707 81.6746 18.9028C82.4648 18.2687 83.1646 17.725 83.4808 17.3399C83.7516 17.023 83.9097 16.8418 83.9999 16.8418C84.1129 16.8418 84.3161 17.0456 84.3161 17.0909V18.1556C84.3161 18.2234 84.4063 18.3368 84.4968 18.3368C84.9936 18.3368 87.1836 18.2463 87.2738 18.2463L87.2727 18.2466Z" fill="white"/>
<path d="M95.4118 25.5168C95.5473 25.4035 95.7505 25.0636 95.7505 24.9732L95.7956 19.7638C95.7956 19.6278 95.5473 19.3109 95.4118 19.2654C95.073 19.1749 94.5765 19.0389 94.3733 18.9937C94.2152 18.9485 93.9218 18.8125 93.9218 18.6313C93.9218 18.5405 94.2155 18.4274 94.4412 18.4274C95.3442 18.4274 96.3376 18.3141 96.857 18.1784C97.0827 18.1105 97.2408 18.0879 97.3989 18.0879C97.5119 18.0879 97.557 18.337 97.557 18.4277C97.5119 19.0619 97.3313 24.0903 97.3313 25.9474C97.3313 25.9927 97.4214 26.2646 97.6021 26.2646C97.7602 26.2646 98.4599 26.1513 98.7311 26.1513C98.8212 26.1513 98.9793 26.5137 99.0019 26.5816C99.0019 26.6494 98.8438 26.808 98.7536 26.808C98.1666 26.8533 97.2183 27.1026 96.6991 27.2383C96.3153 27.3517 95.954 27.4422 95.9089 27.4422C95.8187 27.4422 95.6832 27.2835 95.6832 27.1249C95.6832 26.9892 95.7511 26.5587 95.7737 26.1736C95.7737 26.0602 95.7057 25.9924 95.6606 26.015C95.006 26.4679 94.1027 27.0568 93.8094 27.1702C93.4255 27.3288 92.9287 27.4419 92.2966 27.4419C91.4838 27.4419 90.7612 27.0794 90.3097 26.3774C90.1516 26.1284 89.9938 25.6752 89.9938 25.3127C89.9938 23.682 89.9938 21.1226 89.9487 19.9222C89.9262 19.288 89.4973 19.1973 89.1134 19.0387C88.9102 18.9482 88.707 18.8348 88.707 18.631C88.707 18.5628 88.82 18.4271 89.0909 18.4271C89.723 18.4271 91.3939 18.1781 91.4841 18.1781C91.5743 18.1781 91.6647 18.3819 91.6647 18.5179C91.6873 19.288 91.5968 23.5686 91.5968 24.5878C91.5968 25.1089 91.8451 25.6296 92.1613 25.8564C92.7483 26.3093 93.1547 26.3093 93.6966 26.3093C94.2386 26.3093 94.8482 26.015 95.4126 25.5166L95.4118 25.5168Z" fill="white"/>
<path d="M100.879 18.8149C101.625 18.5659 102.324 18.226 102.55 18.09C102.821 17.9088 102.934 17.8184 103.002 17.8184C103.092 17.8184 103.205 18.0222 103.205 18.09C103.205 18.4977 103.16 18.9054 103.16 19.3357C103.16 19.4262 103.273 19.4491 103.318 19.4262C104.198 18.5882 105.192 18.0219 105.892 18.0219C106.817 18.0219 107.021 18.5882 107.021 18.792C107.021 18.8373 106.953 18.9959 106.885 19.1092C106.637 19.4717 106.095 20.0832 105.96 20.1511C105.914 20.1737 105.711 20.1284 105.643 20.0832C105.395 19.8567 104.853 19.5848 104.402 19.5848C104.018 19.5848 103.634 19.6526 103.408 19.9017C103.25 20.0829 103.182 20.2868 103.182 20.4001C103.182 20.853 103.295 24.9527 103.318 25.2925C103.363 25.9493 103.499 26.3796 103.905 26.4477C104.198 26.5156 104.605 26.629 104.944 26.7194C105.305 26.8328 105.35 26.9911 105.35 27.0819C105.35 27.1952 105.147 27.2857 104.808 27.2857C104.244 27.2857 103.454 27.1723 102.144 27.1723C101.466 27.1723 101.196 27.2628 100.654 27.2628C100.405 27.2628 100.18 27.1723 100.18 26.9911C100.18 26.8551 100.451 26.7647 100.631 26.6965C101.512 26.4019 101.579 26.1755 101.602 24.8167V20.4906C101.602 20.2641 101.602 19.9698 101.354 19.8112C100.812 19.3809 100.586 19.2902 100.586 19.1997C100.586 19.1319 100.631 18.9051 100.88 18.8147L100.879 18.8149Z" fill="white"/>
<path d="M113.989 18.9055C114.485 19.381 114.779 20.0155 114.779 20.8082C114.779 20.9442 114.598 21.1933 114.35 21.1933C114.102 21.1933 110.241 21.1933 109.202 21.1706C109.135 21.1706 109.044 21.284 109.022 21.3519C108.954 21.5331 108.909 21.9181 108.909 22.1446C108.909 23.0278 109.27 24.0699 109.766 24.7267C110.263 25.4063 111.211 25.9723 112.295 25.9723C113.289 25.9723 113.966 25.7232 114.35 25.157C114.44 25.021 114.553 24.8853 114.643 24.8853C114.779 24.8853 114.824 25.0439 114.824 25.157C114.824 25.3382 114.733 25.5873 114.666 25.7006C113.875 26.8558 112.679 27.3992 111.392 27.3992C108.954 27.3992 107.328 25.542 107.328 22.8918C107.328 21.0799 108.276 19.268 110.037 18.4526C110.624 18.1809 111.369 18.0449 111.753 18.0449C112.543 18.0449 113.424 18.3392 113.988 18.9055H113.989ZM109.247 20.3098C109.202 20.4231 109.292 20.5588 109.337 20.5588C109.925 20.5815 111.121 20.5815 112.25 20.5588C112.792 20.5588 113.018 20.4455 113.018 19.9926C113.018 19.3584 112.34 18.6338 111.528 18.6338C110.512 18.6338 109.653 19.268 109.247 20.3098Z" fill="white"/>
<path d="M72.4607 33.8295C73.0026 34.441 73.5217 35.5509 73.5217 36.7966C73.5217 37.9289 73.0477 39.6051 71.6025 40.6921C70.3608 41.6658 69.0287 41.847 68.0127 41.847C67.4933 41.847 67.0419 41.8018 66.7482 41.7566C66.6806 41.7566 66.5901 41.9378 66.5901 42.0509C66.5901 44.2479 66.6126 45.1763 66.6803 45.8104C66.7479 46.3993 66.906 46.6939 67.7639 46.9656C68.2153 47.1016 68.396 47.1921 68.396 47.3507C68.396 47.5319 68.1023 47.645 67.809 47.645C67.3124 47.645 66.0028 47.5316 65.1224 47.5316C64.5804 47.5316 64.3547 47.5995 63.6775 47.5995C63.3387 47.5995 63 47.5316 63 47.3052C63 47.2147 63.1581 47.0335 63.5194 46.9653C64.716 46.7163 64.8287 46.5124 64.9192 44.9043C64.9643 44.1571 64.9871 42.277 64.9871 39.967C64.9871 38.4267 65.0097 36.7279 64.9871 35.3917C64.9871 34.4404 64.8741 34.2821 64.8065 34.2369C64.242 33.8289 63.9712 33.6253 63.9712 33.512C63.9712 33.3986 64.1969 33.1269 64.2874 33.104C64.6261 33.0135 65.6195 32.5377 66.0031 32.3113C66.2288 32.1979 66.4095 32.1074 66.4548 32.1074C66.5225 32.1074 66.7031 32.2886 66.7031 32.3791C66.658 32.7416 66.658 33.1721 66.6352 33.5343C66.6352 33.625 66.7254 33.7155 66.8158 33.6477C67.3578 33.2855 67.9674 32.9683 68.2833 32.8323C68.6446 32.6737 69.3218 32.5606 69.9542 32.5606C70.7669 32.5606 71.7829 33.0814 72.4601 33.8289L72.4607 33.8295ZM66.952 34.1241C66.839 34.2145 66.7262 34.3957 66.6583 34.8034C66.5453 35.4828 66.5228 37.9515 66.6132 38.8802C66.6583 39.2879 66.7488 39.6729 66.9069 39.8768C67.5164 40.7374 68.6 41.1224 69.1645 41.1224C69.4128 41.1224 69.8871 41.0091 70.203 40.7374C71.3317 39.786 71.7384 38.0875 71.7384 37.4081C71.7384 36.887 71.7384 35.664 70.8129 34.6448C70.2259 34.0333 69.3001 33.7161 68.781 33.7161C67.8327 33.7161 67.2005 33.9199 66.9523 34.1241H66.952Z" fill="white"/>
<path d="M75.1096 33.3071C75.8548 33.0581 76.5545 32.7185 76.7803 32.5822C77.0511 32.401 77.1641 32.3105 77.2317 32.3105C77.3222 32.3105 77.4349 32.5144 77.4349 32.5822C77.4349 32.9899 77.3898 33.3976 77.3898 33.8279C77.3898 33.9186 77.5028 33.9413 77.5479 33.9186C78.4283 33.0807 79.4217 32.5144 80.1218 32.5144C81.0476 32.5144 81.2508 33.0807 81.2508 33.2845C81.2508 33.3297 81.1831 33.4883 81.1152 33.6014C80.8669 33.9639 80.325 34.5754 80.1897 34.6432C80.1446 34.6659 79.9414 34.6206 79.8735 34.5754C79.6252 34.3489 79.0833 34.077 78.6318 34.077C78.248 34.077 77.8641 34.1448 77.6384 34.3942C77.4803 34.5754 77.4127 34.7789 77.4127 34.8926C77.4127 35.3455 77.5257 39.4449 77.5482 39.7847C77.5933 40.4415 77.7289 40.8721 78.1352 40.9399C78.4286 41.0078 78.835 41.1211 79.1737 41.2116C79.535 41.325 79.5801 41.4833 79.5801 41.5738C79.5801 41.6871 79.3769 41.7776 79.0382 41.7776C78.4737 41.7776 77.6838 41.6642 76.3742 41.6642C75.6969 41.6642 75.4258 41.755 74.8842 41.755C74.6359 41.755 74.4102 41.6642 74.4102 41.4833C74.4102 41.3473 74.681 41.2568 74.8616 41.1887C75.7423 40.8944 75.81 40.6679 75.8325 39.3089V34.9828C75.8325 34.7563 75.8325 34.462 75.5842 34.3034C75.0423 33.8731 74.8165 33.7827 74.8165 33.6919C74.8165 33.624 74.8616 33.3976 75.1102 33.3068L75.1096 33.3071Z" fill="white"/>
<path d="M88.2191 33.3986C88.716 33.8741 89.0093 34.5085 89.0093 35.301C89.0093 35.4367 88.8287 35.686 88.5804 35.686C88.3321 35.686 84.4712 35.686 83.4327 35.6631C83.3651 35.6631 83.2746 35.7765 83.2521 35.8443C83.1841 36.0256 83.139 36.4106 83.139 36.6371C83.139 37.5206 83.5003 38.5621 83.9969 39.2191C84.4935 39.8985 85.4418 40.4648 86.5257 40.4648C87.5191 40.4648 88.1963 40.2157 88.5801 39.6494C88.6703 39.5134 88.7833 39.3777 88.8735 39.3777C89.0091 39.3777 89.0541 39.5363 89.0541 39.6494C89.0541 39.8307 88.9637 40.0797 88.896 40.1931C88.1058 41.348 86.9092 41.8917 85.6224 41.8917C83.1841 41.8917 81.5586 40.0345 81.5586 37.3843C81.5586 35.5724 82.5069 33.7604 84.2677 32.9451C84.8548 32.6734 85.5999 32.5371 85.9837 32.5371C86.7739 32.5371 87.6543 32.8317 88.2188 33.398L88.2191 33.3986ZM83.4778 34.8025C83.4327 34.9159 83.5229 35.0516 83.568 35.0516C84.155 35.0745 85.3516 35.0745 86.4806 35.0516C87.0225 35.0516 87.2482 34.9382 87.2482 34.4853C87.2482 33.8512 86.5708 33.1266 85.758 33.1266C84.742 33.1266 83.8839 33.7607 83.4778 34.8025Z" fill="white"/>
<path d="M94.9324 32.6513C95.181 32.6966 95.6099 32.8778 95.655 32.9007C95.7001 32.9233 95.8356 33.0819 95.8356 33.2176C95.8356 33.6256 95.9033 34.3957 95.9033 34.554C95.9033 34.7579 95.8128 34.962 95.6324 34.962C95.542 34.962 95.4067 34.826 95.2937 34.5769C94.7968 33.5125 94.2326 33.0596 93.4875 33.0596C92.562 33.0596 92.1331 33.988 92.1331 34.4638C92.1331 35.234 92.8557 35.8226 94.3682 36.6608C95.6327 37.4083 96.1293 38.1782 96.1293 39.1976C96.1293 40.2395 95.3841 41.0096 94.8197 41.4173C94.4133 41.689 93.6231 41.938 92.9233 41.938C92.2461 41.938 91.1171 41.7568 90.7333 41.4396C90.6654 41.3262 90.3945 40.3752 90.3945 39.7181C90.3945 39.4691 90.4396 39.2426 90.5752 39.2426C90.7558 39.2426 90.9139 39.5143 91.0492 39.7634C91.6816 40.9185 92.2912 41.3715 93.1037 41.3715C93.3973 41.3715 93.7583 41.2129 94.0069 41.0316C94.3456 40.7599 94.526 40.2163 94.526 39.7857C94.526 39.1742 94.2098 38.6986 93.51 38.2684C92.9681 37.8833 92.8328 37.7699 92.1328 37.317C91.4556 36.8867 90.733 36.094 90.733 35.0295C90.733 34.2594 91.1168 33.5122 91.9747 32.9912C92.4036 32.7195 93.0132 32.5156 93.7809 32.5156C94.2098 32.5156 94.6841 32.5835 94.9324 32.6513Z" fill="white"/>
<path d="M104.11 33.3986C104.607 33.8741 104.9 34.5085 104.9 35.301C104.9 35.4367 104.72 35.686 104.471 35.686C104.223 35.686 100.362 35.686 99.3236 35.6631C99.256 35.6631 99.1655 35.7765 99.143 35.8443C99.0753 36.0256 99.0299 36.4106 99.0299 36.6371C99.0299 37.5206 99.391 38.5621 99.8878 39.2191C100.385 39.8985 101.333 40.4648 102.417 40.4648C103.41 40.4648 104.087 40.2157 104.471 39.6494C104.561 39.5134 104.674 39.3777 104.764 39.3777C104.9 39.3777 104.945 39.5363 104.945 39.6494C104.945 39.8307 104.855 40.0797 104.787 40.1931C103.997 41.348 102.8 41.8917 101.513 41.8917C99.075 41.8917 97.4492 40.0345 97.4492 37.3843C97.4492 35.5724 98.3975 33.7604 100.159 32.9451C100.746 32.6734 101.491 32.5371 101.875 32.5371C102.665 32.5371 103.545 32.8317 104.11 33.398L104.11 33.3986ZM99.3687 34.8025C99.3236 34.9159 99.4138 35.0516 99.4592 35.0516C100.046 35.0745 101.243 35.0745 102.371 35.0516C102.913 35.0516 103.139 34.9382 103.139 34.4853C103.139 33.8512 102.462 33.1266 101.649 33.1266C100.633 33.1266 99.7748 33.7607 99.3687 34.8025Z" fill="white"/>
<path d="M106.76 33.15C107.143 33.0143 107.956 32.7197 108.272 32.4932C108.498 32.3575 108.701 32.2441 108.814 32.2441C108.927 32.2441 109.04 32.4932 109.04 32.584C109.04 32.969 108.949 33.5127 108.949 33.7162C108.949 33.8296 109.062 33.7844 109.085 33.7844C109.988 33.1729 111.162 32.5384 112.11 32.5384C113.217 32.5384 113.849 33.0369 114.165 33.3993C114.662 33.9879 114.955 35.03 114.955 36.1623C114.955 36.5926 115 39.9677 115.023 40.2846C115.068 40.6244 115.294 40.919 115.858 41.0774C116.287 41.1907 116.423 41.3041 116.423 41.4624C116.423 41.6207 116.106 41.7118 115.745 41.7118C115.226 41.7118 114.707 41.6665 114.075 41.6665C113.51 41.6665 112.81 41.7118 112.517 41.7118C112.313 41.7118 111.998 41.621 111.998 41.4401C111.998 41.2815 112.246 41.1458 112.517 41.055C113.059 40.8512 113.171 40.67 113.217 39.9227C113.262 39.1752 113.284 36.4346 113.284 35.7778C113.284 34.9625 112.878 34.3057 112.607 34.1019C112.359 33.9207 111.681 33.6716 111.162 33.6716C110.169 33.6716 109.582 34.0114 109.153 34.3965C109.085 34.4643 108.927 34.7363 108.927 34.9399C108.927 35.2344 108.927 40.104 108.95 40.3757C108.972 40.6929 109.063 40.8741 109.785 41.0776C110.011 41.1458 110.192 41.2815 110.192 41.4175C110.192 41.5758 109.943 41.6892 109.627 41.6892C109.356 41.6892 108.724 41.6665 108.25 41.6665C107.415 41.6665 106.76 41.7344 106.376 41.7344C106.037 41.7344 105.789 41.6439 105.789 41.4401C105.789 41.2815 106.015 41.1684 106.263 41.1003C107.008 40.8738 107.144 40.6473 107.212 39.8317C107.279 39.1523 107.325 37.1818 107.325 34.8714C107.325 34.6224 107.28 34.3959 106.783 33.9879C106.489 33.7841 106.354 33.671 106.354 33.6029C106.354 33.4446 106.602 33.2178 106.76 33.15H106.76Z" fill="white"/>
<path d="M122.637 32.7421C122.66 32.7421 122.885 32.8555 122.885 32.9234C122.885 32.8555 122.953 33.4897 122.953 33.7842C122.953 33.9881 122.524 34.0333 122.366 34.0333H119.905C119.792 34.0333 119.702 34.1467 119.702 34.1919C119.679 34.6448 119.657 37.9744 119.657 39.0614C119.657 39.6277 119.792 39.9223 120.041 40.1714C120.47 40.5565 120.944 40.6017 121.418 40.6017C121.711 40.6017 122.185 40.4657 122.524 40.2619C122.728 40.1485 122.773 40.1259 122.863 40.1259C122.886 40.1259 122.998 40.1711 122.998 40.3752C122.998 40.5565 122.84 40.7829 122.682 40.9415C122.073 41.5304 121.282 41.9381 120.266 41.9381C119.341 41.9381 118.55 41.3718 118.28 40.8737C118.031 40.4886 117.986 40.0128 117.986 39.3787C117.986 38.5407 118.077 35.1433 118.077 34.3505C118.077 34.1919 117.67 34.0333 117.219 33.8976C117.038 33.8295 116.902 33.7164 116.902 33.6483C116.902 33.5578 116.97 33.467 117.038 33.3992C117.828 32.7648 118.528 32.2214 118.844 31.8363C119.115 31.5191 119.273 31.3379 119.363 31.3379C119.476 31.3379 119.679 31.5417 119.679 31.587V32.6514C119.679 32.7195 119.77 32.8326 119.86 32.8326C120.357 32.8326 122.547 32.7421 122.637 32.7421Z" fill="white"/>
</svg>
