<svg width="184" height="58" viewBox="0 0 184 58" fill="none" xmlns="http://www.w3.org/2000/svg">
<g clip-path="url(#clip0_5961_6483)">
<mask id="mask0_5961_6483" style="mask-type:luminance" maskUnits="userSpaceOnUse" x="47" y="22" width="90" height="14">
<path d="M137 22.213H47V35.787H137V22.213Z" fill="white"/>
</mask>
<g mask="url(#mask0_5961_6483)">
<path d="M60.0924 34.6431V29.1239L64.5687 29.2872V28.2321L60.0924 28.3955V23.359C61.8347 23.2937 63.4493 23.3754 65.5936 23.8167L65.2861 22.459H57.6836V35.5426H65.6537L65.9955 34.0052C63.4928 34.6185 61.9887 34.7002 60.0924 34.6431Z" fill="white"/>
<path d="M53.364 28.2639L51.2284 27.307C49.8617 26.6936 48.8877 26.1702 48.8963 24.9354C48.9049 23.8397 49.7163 23.1283 51.2455 23.1283C52.2533 23.1283 53.6457 23.5618 55.431 24.3955L55.115 22.6213C53.8937 22.3927 52.4926 22.213 51.6469 22.213C48.862 22.213 47.1197 23.701 47.1197 25.803C47.1197 27.6757 48.4692 28.5752 50.1434 29.319L52.2619 30.2595C53.6028 30.8564 54.3546 31.3716 54.3546 32.5735C54.3546 34.1274 53.2014 34.8712 51.6212 34.8712C50.0409 34.8712 48.5035 34.225 47 33.3666L47.359 35.3453C49.0074 35.5415 49.8617 35.7706 51.4677 35.7706C54.1502 35.7706 56.0974 34.1762 56.0974 31.7229C56.0974 29.826 54.8928 28.9507 53.364 28.2639Z" fill="white"/>
<path d="M70.0494 34.6431V29.1239L74.5257 29.2872V28.2321L70.0494 28.3955V23.359C71.7923 23.2937 73.4063 23.3754 75.5506 23.8167L75.2431 22.459H67.6406V35.5426H75.6106L75.9525 34.0052C73.4498 34.6185 71.9457 34.7002 70.0494 34.6431Z" fill="white"/>
<path d="M118.77 32.1894L114.431 22.459H112.227V35.5421H113.166V25.0263L117.933 35.5421H118.104L122.896 25.0181V35.5421H125.305V22.459H123.101L118.77 32.1894Z" fill="white"/>
<path d="M131.369 22.459H127.457V35.5426H129.866V30.5303C134.487 31.3562 136.999 29.3283 136.999 26.6952C136.999 23.866 134.684 22.459 131.369 22.459ZM129.866 29.9816V23.3585C132.548 23.2193 134.59 23.98 134.59 26.7194C134.59 29.0006 132.984 30.1537 129.866 29.9822V29.9816Z" fill="white"/>
<path d="M104.503 22.458L101.18 30.2097C100.104 32.7117 99.019 34.601 96.6703 34.601C93.6976 34.601 91.8866 32.0743 91.8866 28.4684C91.8866 25.1321 93.3048 23.137 95.6621 23.137C97.3448 23.137 98.242 23.6194 100.189 24.6909L99.9076 22.8591C98.6691 22.4749 97.4049 22.213 96.1745 22.213C92.2965 22.213 89.6055 25.296 89.6055 29.1634C89.6055 33.0307 92.3132 35.787 95.8069 35.787C97.9254 35.787 99.2492 34.9775 100.351 33.6775C101.086 32.8109 101.513 32.6552 102.017 32.6552C103.085 32.6552 104.229 33.4566 105.4 33.4566C106.032 33.4566 106.912 33.1704 107.407 32.1971L108.646 35.5415H111.114L106.144 22.458H104.503ZM106.605 32.0661C105.537 32.0661 104.256 31.3546 103.248 31.3546C102.59 31.3546 101.949 31.6654 101.283 32.2212L101.224 32.1965C101.531 31.6567 101.839 31.0598 102.104 30.4223L104.547 24.5101L107.127 31.4522C107.289 31.894 106.965 32.0656 106.606 32.0656L106.605 32.0661Z" fill="white"/>
<path d="M81.3229 22.459H77.5898V35.5426H81.3229C85.466 35.5426 88.4639 32.9994 88.4639 29.0093C88.4639 25.0191 85.466 22.459 81.3229 22.459ZM79.9991 34.6427V23.3585C84.33 23.0395 86.0299 24.9041 86.0299 28.8778C86.0299 32.8515 84.3128 34.9945 79.9991 34.6427Z" fill="white"/>
</g>
</g>
<defs>
<clipPath id="clip0_5961_6483">
<rect width="90" height="14" fill="white" transform="translate(47 22)"/>
</clipPath>
</defs>
</svg>
