<svg width="100" height="22" viewBox="0 0 100 22" fill="none" xmlns="http://www.w3.org/2000/svg">
<path d="M25.5156 21L25.2646 20.6045C24.1128 18.8446 19.1405 11.8096 13.2578 11.8096C6.53441 11.81 1 21 1 21V1C1 1 6.53439 10.19 13.2578 10.1904C19.9633 10.1904 25.486 1.04918 25.5156 1V21Z" fill="white"/>
<path d="M91.0742 6.4868H93.1189V9.05458C93.6679 8.04979 94.3494 7.34273 95.1635 6.93337C95.9965 6.52401 96.9242 6.31934 97.9465 6.31934H99.054V8.35681H97.8613C96.4793 8.35681 95.3623 8.73826 94.5104 9.50115C93.6584 10.2454 93.223 11.4828 93.2041 13.2133V21.0003H91.0742V6.4868Z" fill="white"/>
<path d="M81.7263 21.3349C80.2875 21.3349 79.0379 21.0092 77.9778 20.358C76.9176 19.6881 76.1035 18.7857 75.5355 17.6507C74.9676 16.497 74.6836 15.1945 74.6836 13.7432C74.6836 12.2918 74.9676 10.9986 75.5355 9.8636C76.1035 8.70996 76.9176 7.80752 77.9778 7.15627C79.0379 6.48642 80.2875 6.15149 81.7263 6.15149C83.1651 6.15149 84.4146 6.48642 85.4748 7.15627C86.5539 7.80752 87.3775 8.70996 87.9454 9.8636C88.5134 10.9986 88.7974 12.2918 88.7974 13.7432C88.7974 15.1945 88.5134 16.497 87.9454 17.6507C87.3775 18.7857 86.5539 19.6881 85.4748 20.358C84.4146 21.0092 83.1651 21.3349 81.7263 21.3349ZM81.7263 19.4369C83.2976 19.4369 84.4903 18.916 85.3044 17.874C86.1374 16.8133 86.5539 15.4364 86.5539 13.7432C86.5539 12.0499 86.1374 10.6823 85.3044 9.64032C84.4903 8.57971 83.2976 8.04941 81.7263 8.04941C80.1739 8.04941 78.9811 8.57971 78.1481 9.64032C77.3151 10.6823 76.8986 12.0499 76.8986 13.7432C76.8986 15.4364 77.3151 16.8133 78.1481 17.874C78.9811 18.916 80.1739 19.4369 81.7263 19.4369Z" fill="white"/>
<path d="M70.344 21V18.5996C69.814 19.4742 69.1135 20.1533 68.2426 20.6371C67.3907 21.1023 66.3967 21.3349 65.2608 21.3349C63.822 21.3349 62.5914 21.0093 61.5691 20.358C60.5468 19.7068 59.7705 18.8043 59.2405 17.6507C58.7104 16.497 58.4453 15.1945 58.4453 13.7432C58.4453 12.2918 58.7104 10.9893 59.2405 9.8357C59.7705 8.68206 60.5468 7.77962 61.5691 7.12837C62.5914 6.47712 63.822 6.1515 65.2608 6.1515C66.3778 6.1515 67.3528 6.37478 68.1858 6.82135C69.0377 7.26792 69.7288 7.90987 70.2589 8.74718V0.904297H72.3887V21H70.344ZM65.488 19.437C67.0593 19.437 68.2521 18.916 69.0661 17.874C69.8991 16.8134 70.3156 15.4364 70.3156 13.7432C70.3156 12.0499 69.8991 10.6823 69.0661 9.64032C68.2521 8.57972 67.0593 8.04942 65.488 8.04942C63.9356 8.04942 62.7429 8.57972 61.9099 9.64032C61.0958 10.6823 60.6887 12.0499 60.6887 13.7432C60.6887 15.4364 61.0958 16.8134 61.9099 17.874C62.7429 18.916 63.9356 19.437 65.488 19.437Z" fill="white"/>
<path d="M54.0352 6.48642H56.1934V21H54.0352V6.48642ZM54.0352 0.904297H56.165V3.72327H54.0352V0.904297Z" fill="white"/>
<path d="M46.3218 21.3349C44.4664 21.3349 42.9803 20.9069 41.8633 20.051C40.7463 19.1951 40.1499 17.9298 40.0742 16.2551H42.2325C42.3271 17.3902 42.7058 18.2182 43.3684 18.7392C44.0499 19.2416 45.0344 19.4928 46.3218 19.4928C47.4577 19.4928 48.3569 19.2974 49.0196 18.9066C49.6822 18.4973 50.0135 17.9112 50.0135 17.1483C50.0135 16.6645 49.9188 16.2737 49.7295 15.976C49.5402 15.6783 49.171 15.4271 48.622 15.2224C48.073 14.9992 47.24 14.8038 46.123 14.6363C44.6652 14.3944 43.5293 14.0781 42.7152 13.6874C41.9012 13.2966 41.3332 12.8221 41.0114 12.2639C40.6895 11.7057 40.5286 11.0265 40.5286 10.2264C40.5286 8.99837 41.0303 8.0122 42.0337 7.26791C43.0371 6.52363 44.3339 6.15149 45.9242 6.15149C47.7795 6.15149 49.2278 6.57015 50.2691 7.40747C51.3293 8.24479 51.8688 9.42634 51.8878 10.9521H49.7579C49.7011 9.89151 49.3414 9.12862 48.6788 8.66344C48.0162 8.19827 47.098 7.96568 45.9242 7.96568C44.9776 7.96568 44.1919 8.16105 43.5672 8.5518C42.9613 8.94255 42.6584 9.49146 42.6584 10.1985C42.6584 10.7009 42.772 11.101 42.9992 11.3987C43.2264 11.6778 43.6145 11.9197 44.1635 12.1244C44.7315 12.329 45.574 12.5244 46.6909 12.7105C48.1108 12.9524 49.2184 13.2594 50.0135 13.6315C50.8086 13.9851 51.3671 14.4316 51.689 14.9712C52.0108 15.5109 52.1717 16.19 52.1717 17.0087C52.1717 18.367 51.6227 19.4276 50.5247 20.1905C49.4266 20.9534 48.0256 21.3349 46.3218 21.3349Z" fill="white"/>
<path d="M35.7344 0.904297H37.9778V21H35.7344V0.904297Z" fill="white"/>
</svg>
