<svg width="473" height="100" viewBox="0 0 473 100" fill="none" xmlns="http://www.w3.org/2000/svg">
<g style="mix-blend-mode:color-burn">
<path d="M216.708 25.6829C225.658 25.6829 232.645 27.7321 237.668 31.8304C242.782 35.9288 245.385 41.7121 245.476 49.1802H235.202C234.928 43.989 233.193 40.2548 229.996 37.978C226.8 35.7011 222.371 34.5628 216.708 34.5627C212.142 34.5627 208.352 35.519 205.338 37.4316C202.416 39.3441 200.955 42.0309 200.955 45.4917C200.955 47.9506 201.503 49.9086 202.599 51.3658C203.695 52.7319 205.567 53.9161 208.215 54.9179C210.955 55.9197 215.019 56.876 220.407 57.7867C227.256 58.9707 232.599 60.4736 236.435 62.2951C240.27 64.0255 242.964 66.2113 244.517 68.8525C246.069 71.4936 246.846 74.8179 246.846 78.8251C246.846 85.4735 244.197 90.6648 238.9 94.3989C233.603 98.1329 226.845 100 218.626 100C209.676 100 202.507 97.905 197.119 93.7156C191.731 89.5262 188.854 83.3332 188.489 75.1365H198.9C199.357 80.692 201.183 84.745 204.379 87.2951C207.667 89.754 212.416 90.9833 218.626 90.9833C224.106 90.9833 228.444 90.027 231.64 88.1145C234.836 86.1108 236.435 83.2421 236.435 79.508C236.435 77.1401 235.978 75.2275 235.065 73.7704C234.151 72.3132 232.37 71.0836 229.722 70.0818C227.074 68.9889 223.055 68.0326 217.667 67.2129C210.635 66.029 205.155 64.4807 201.228 62.5681C197.302 60.6555 194.562 58.333 193.009 55.6008C191.457 52.8686 190.681 49.5443 190.681 45.6282C190.681 39.6173 193.101 34.7905 197.941 31.1475C202.781 27.5045 209.037 25.6829 216.708 25.6829Z" fill="url(#paint0_linear_5997_245)"/>
<path fill-rule="evenodd" clip-rule="evenodd" d="M344.371 98.3608H334.507V86.6122C331.95 90.8927 328.571 94.2168 324.37 96.5848C320.261 98.8616 315.466 100 309.987 100C303.046 100 297.11 98.4062 292.178 95.2186C287.246 92.031 283.502 87.6139 280.945 81.9673C278.388 76.3207 277.109 69.9453 277.109 62.8415C277.109 55.7377 278.388 49.3626 280.945 43.716C283.502 38.0694 287.246 33.6522 292.178 30.4646C297.11 27.277 303.046 25.6829 309.987 25.6829C315.375 25.6829 320.078 26.7758 324.096 28.9616C328.206 31.1474 331.539 34.2895 334.096 38.3878V0H344.371V98.3608ZM311.082 34.9726C303.594 34.9726 297.84 37.5684 293.822 42.7597C289.895 47.8598 287.932 54.5537 287.932 62.8415C287.932 71.1293 289.895 77.8688 293.822 83.0601C297.84 88.1602 303.594 90.7103 311.082 90.7103C318.662 90.7103 324.416 88.1602 328.343 83.0601C332.361 77.8688 334.37 71.1293 334.37 62.8415C334.37 54.5537 332.361 47.8598 328.343 42.7597C324.416 37.5684 318.662 34.9726 311.082 34.9726Z" fill="url(#paint1_linear_5997_245)"/>
<path fill-rule="evenodd" clip-rule="evenodd" d="M389.413 25.6829C396.354 25.6829 402.382 27.3221 407.496 30.6008C412.701 33.7884 416.674 38.2058 419.414 43.8525C422.154 49.408 423.524 55.7377 423.524 62.8415C423.524 69.9452 422.154 76.3204 419.414 81.9669C416.674 87.5225 412.701 91.9396 407.496 95.2183C402.382 98.4059 396.354 100 389.413 100C382.473 100 376.445 98.4059 371.331 95.2183C366.217 91.9396 362.29 87.5225 359.55 81.9669C356.81 76.3204 355.44 69.9452 355.44 62.8415C355.44 55.7377 356.81 49.408 359.55 43.8525C362.29 38.2058 366.217 33.7884 371.331 30.6008C376.445 27.3221 382.473 25.6829 389.413 25.6829ZM389.413 34.9726C381.925 34.9726 376.171 37.5681 372.153 42.7593C368.135 47.8595 366.126 54.5537 366.126 62.8415C366.126 71.1292 368.135 77.8688 372.153 83.0601C376.171 88.1602 381.925 90.7103 389.413 90.7103C396.993 90.7103 402.747 88.1602 406.674 83.0601C410.692 77.8688 412.701 71.1292 412.701 62.8415C412.701 54.5537 410.692 47.8595 406.674 42.7593C402.747 37.5681 396.993 34.9726 389.413 34.9726Z" fill="url(#paint2_linear_5997_245)"/>
<path d="M118.262 98.3598C118.262 98.3598 91.5649 53.3781 59.1322 53.3757V53.3764C26.7103 53.3765 0.0196959 98.3273 0 98.3605V49.4154H59.1294V49.4148H118.262V98.3598Z" fill="url(#paint3_linear_5997_245)"/>
<path d="M178.376 98.3605H167.554V0H178.376V98.3605Z" fill="url(#paint4_linear_5997_245)"/>
<path d="M266.246 98.3605H255.835V27.3224H266.246V98.3605Z" fill="url(#paint5_linear_5997_245)"/>
<path d="M473 36.4753H467.246C460.58 36.4753 455.191 38.3424 451.082 42.0764C446.972 45.7194 444.872 51.7761 444.78 60.246V98.3605H434.506V27.3224H444.369V39.8905C447.018 34.9725 450.306 31.5116 454.233 29.508C458.251 27.5044 462.726 26.5027 467.657 26.5027H473V36.4753Z" fill="url(#paint6_linear_5997_245)"/>
<path d="M118.262 49.4134H0V0.468337C0 0.468337 26.6976 45.4507 59.1308 45.4521C91.5641 45.4509 118.262 0.468337 118.262 0.468337V49.4134Z" fill="url(#paint7_linear_5997_245)"/>
<path d="M266.109 13.7977H255.835V0H266.109V13.7977Z" fill="url(#paint8_linear_5997_245)"/>
</g>
<defs>
<linearGradient id="paint0_linear_5997_245" x1="172.965" y1="0" x2="172.965" y2="98.3606" gradientUnits="userSpaceOnUse">
<stop stop-color="#010101"/>
<stop offset="1" stop-color="#010101" stop-opacity="0"/>
</linearGradient>
<linearGradient id="paint1_linear_5997_245" x1="172.965" y1="0" x2="172.965" y2="98.3606" gradientUnits="userSpaceOnUse">
<stop stop-color="#010101"/>
<stop offset="1" stop-color="#010101" stop-opacity="0"/>
</linearGradient>
<linearGradient id="paint2_linear_5997_245" x1="172.965" y1="0" x2="172.965" y2="98.3606" gradientUnits="userSpaceOnUse">
<stop stop-color="#010101"/>
<stop offset="1" stop-color="#010101" stop-opacity="0"/>
</linearGradient>
<linearGradient id="paint3_linear_5997_245" x1="172.965" y1="0" x2="172.965" y2="98.3606" gradientUnits="userSpaceOnUse">
<stop stop-color="#010101"/>
<stop offset="1" stop-color="#010101" stop-opacity="0"/>
</linearGradient>
<linearGradient id="paint4_linear_5997_245" x1="172.965" y1="0" x2="172.965" y2="98.3606" gradientUnits="userSpaceOnUse">
<stop stop-color="#010101"/>
<stop offset="1" stop-color="#010101" stop-opacity="0"/>
</linearGradient>
<linearGradient id="paint5_linear_5997_245" x1="172.965" y1="0" x2="172.965" y2="98.3606" gradientUnits="userSpaceOnUse">
<stop stop-color="#010101"/>
<stop offset="1" stop-color="#010101" stop-opacity="0"/>
</linearGradient>
<linearGradient id="paint6_linear_5997_245" x1="172.965" y1="0" x2="172.965" y2="98.3606" gradientUnits="userSpaceOnUse">
<stop stop-color="#010101"/>
<stop offset="1" stop-color="#010101" stop-opacity="0"/>
</linearGradient>
<linearGradient id="paint7_linear_5997_245" x1="172.965" y1="0" x2="172.965" y2="98.3606" gradientUnits="userSpaceOnUse">
<stop stop-color="#010101"/>
<stop offset="1" stop-color="#010101" stop-opacity="0"/>
</linearGradient>
<linearGradient id="paint8_linear_5997_245" x1="172.965" y1="0" x2="172.965" y2="98.3606" gradientUnits="userSpaceOnUse">
<stop stop-color="#010101"/>
<stop offset="1" stop-color="#010101" stop-opacity="0"/>
</linearGradient>
</defs>
</svg>
